<?xml version="1.0" encoding="utf-8"?>
<!-- Generator: Adobe Illustrator 26.3.1, SVG Export Plug-In . SVG Version: 6.00 Build 0)  -->
<svg version="1.1" id="Layer_1" xmlns="http://www.w3.org/2000/svg" xmlns:xlink="http://www.w3.org/1999/xlink" x="0px" y="0px"
	 viewBox="0 0 225 225" style="enable-background:new 0 0 225 225;" xml:space="preserve">
<style type="text/css">
	.st0{fill:#662F36;}
	.st1{fill:#FBEE13;}
	.st2{fill:#652E34;}
	.st3{fill:#673138;}
	.st4{fill:#F7F4F4;}
	.st5{fill:#F8F6F6;}
	.st6{fill:#FAFAFA;}
	.st7{fill:#652D34;}
	.st8{fill:#EDE6E7;}
	.st9{fill:#565656;}
	.st10{fill:#FDFCFC;}
	.st11{fill:#353333;}
	.st12{fill:#F9EB13;}
	.st13{fill:#FCFBFB;}
</style>
<g>
	<path class="st0" d="M29.5,173c-3.8-5.4-7.2-10.9-8.2-17.6c-0.3-1.8-0.5-3.6-0.5-5.4c-0.5-10.7,2.1-20.9,3.9-31.3
		c1.8-10.8,2.4-21.6,1.2-32.5c-1.1-10.3-2.5-20.6-5.2-30.6c-1.3-4.9-2.6-9.8-4.8-14.4c-0.7-1.6-0.3-2.2,0.9-3.1
		c14-10.9,29.8-18.1,46.9-22.7C79,11,94.8,9.5,110.8,10c18.9,0.6,37,4.4,54.4,11.8c10.1,4.3,19.6,9.7,28.3,16.4
		c1.1,0.8,1.2,1.4,0.6,2.7c-8.6,18.9-11.8,38.9-10.8,59.6c0.6,11.4,3.6,22.3,6.4,33.3c1.5,5.8,3.4,11.6,3.3,17.8
		c0,7.5-2.8,14-7.1,20c-0.1,0.1-0.3,0.2-0.5,0.3c-0.1-1.2,0.4-2.4,0.5-3.6c0.6-3.8,2-7.5,2.1-11.4c0-1.7,0-3.3-1.7-4.2
		c-1.7-0.9-3.2-0.3-4.7,0.6c-4.7,2.9-8.9,6.5-13.3,9.9c-0.5,0.4-0.9,1.2-1.8,0.7c5.4-9.8,6.8-20.2,5-31c-1.1-6.5-2.5-13-3.7-19.5
		c-2.9-15.2-2.7-30.5,0.2-45.7c1.1-5.9,2.7-11.8,4.8-17.5c0.4-1.1,0.2-1.6-0.8-2.2c-5.5-3.2-11.1-6.2-17-8.8
		c-12-5.2-24.4-9-37.4-10.6c-14.1-1.7-28-0.6-41.8,2.5c-14.7,3.3-28.3,9.3-40.7,17.9c-1.2,0.8-0.8,1.5-0.5,2.4
		c3.2,10.2,5.7,20.6,6.7,31.3c1.1,11.9,1,23.8-0.8,35.6c-0.9,5.7-2.3,11.3-2,17c0.4,8.7,2,17.2,5.2,25.4c0.3,0.7,0.8,1.3,0.1,2.6
		c-3-3.1-5.9-6.1-8.8-9.2c-1-1.1-2.3-1.7-3.7-2c-1.5-0.4-2.7,0.1-3.3,1.6c-0.4,1.1-0.7,2.2-0.6,3.4c0.2,3.5,0.6,6.9,1.3,10.3
		C29.3,169.4,29.8,171.1,29.5,173z M33.2,40.4c0.8,0.9,1.7,1.7,2.5,2.7c0.6,0.7,1.1,0.9,2,0.4c0.9-0.5,0.9-1.1,0.7-1.9
		c-0.4-1.4-0.8-2.8-1.2-4.2c1.1,1,1.8,2.2,2.4,3.4c0.5,1,0.9,1.1,1.9,0.6c1.1-0.5,0.8-1,0.4-1.8c-1.1-1.9-2.1-3.8-3.2-5.7
		c-0.3-0.6-0.4-2-1.6-1.2c-1,0.7-3,0.7-2.4,2.8c0.3,1.2,0.8,2.5,0.7,4.2c-0.8-0.9-1.4-1.5-1.9-2.1c-1.9-2.1-1.9-2.1-4.3-0.5
		c-0.8,0.5-0.8,0.9-0.4,1.7c1.1,2,2.3,4,3.3,6.1c0.5,1,0.9,1.1,1.9,0.6c1.1-0.5,0.8-1,0.4-1.8c-0.5-1-1-1.9-1.5-2.9
		C33,40.7,33.1,40.6,33.2,40.4z M145.8,26.9c-0.1,0-0.3,0-0.4,0c-0.6-1.5-1.2-2.9-1.7-4.5c-0.4-1.3-1.6-1.2-2.5-1.4
		c-1-0.2-0.8,0.9-1,1.5c-0.6,2.2-1.1,4.4-1.8,6.5c-0.3,1,0,1.3,0.8,1.4c0.8,0.2,1.6,0.6,1.9-0.7c0.2-1.1,0.6-2.2,1.1-3.8
		c0.7,2,1.4,3.5,1.9,5.1c0.4,1.3,1.6,1.2,2.5,1.4c1.1,0.2,0.8-1,1-1.5c0.6-2,1.1-4.1,1.7-6.1c0.3-1,0.5-1.7-1-2.1
		c-1.4-0.3-1.5,0.2-1.7,1.2C146.4,25,146,26,145.8,26.9z M158.5,31.8c0.1,0,0.3,0,0.4,0.1c0.3,1.6,0.7,3.1,1,4.7
		c0.3,1.4,1.5,1.5,2.5,1.8c1,0.3,0.9-0.9,1.1-1.4c0.8-1.9,1.6-3.9,2.4-5.9c0.3-0.8,0.8-1.5-0.5-1.8c-0.9-0.2-1.8-0.7-2.1,0.8
		c-0.2,1.1-0.8,2.2-1.3,3.5c-0.5-2-1-3.6-1.3-5.3c-0.2-1.4-1.3-1.5-2.3-1.7c-1.1-0.2-1,0.9-1.2,1.4c-0.9,2.1-1.6,4.2-2.5,6.3
		c-0.5,1.1,0,1.3,0.8,1.6c0.9,0.4,1.4,0.3,1.7-0.7C157.5,33.9,158,32.9,158.5,31.8z M33.9,94.6c0.1,0.1,0.1,0.3,0.2,0.4
		c-1.3,1-2.5,2-3.8,2.9c-1.1,0.7-0.9,1.8-0.7,2.8c0.2,1,1.2,0.5,1.8,0.5c2,0.1,4,0,6,0c1,0,2,0.3,2-1.4c0-1.6-1-1.3-1.9-1.3
		c-1,0-2,0-3.5,0c1.8-1.3,3-2.3,4.4-3.1c1.3-0.7,1.1-1.8,0.9-2.9c-0.2-1.2-1.3-0.6-1.9-0.6c-2.2-0.1-4.4,0-6.6-0.1
		c-1.1,0-1.2,0.5-1.2,1.4c0,0.9,0.2,1.4,1.3,1.4C31.7,94.5,32.8,94.6,33.9,94.6z M38.2,112.1c-0.8,0.3-1.4,0.6-2,0.9
		c-4.2,1.7-4.2,1.7-7.1-1.5c-0.1-0.1-0.2,0-0.3,0c-0.8,2.1-0.6,3.9,1.2,5.4c0.4,0.4,1,0.9,0.6,1.5c-0.4,0.6-0.9-0.1-1.4-0.2
		c-0.9-0.1-1.6-0.1-1.7,1.2c-0.1,1.1-0.1,1.8,1.3,1.9c2.1,0.2,4.2,0.4,6.3,0.9c1.5,0.4,1.8-0.2,2.1-1.5c0.3-1.5-0.7-1.4-1.5-1.6
		c-0.9-0.2-1.5-0.8-1.6-1.5c-0.1-0.7,0.9-0.8,1.5-0.9C38,116.1,38.2,114.3,38.2,112.1z M60.5,30c0-0.8-0.4-2.2-1.3-3.4
		c-1-1.3-2.3-2.2-4.2-1.6c-1.4,0.5-2.8,0.9-4.2,1.3c-0.7,0.2-0.8,0.4-0.6,1.1c0.9,2.5,1.7,5,2.5,7.5c0.2,0.6,0.5,1,1.3,0.7
		c1.6-0.6,3.4-0.9,4.8-1.9C59.9,33,60.6,32,60.5,30z M121.9,27.1c-0.6-1.2-1.1-2.4-1.8-3.6c-0.3-0.6-0.6-0.8,0.2-1.1
		c1.1-0.5,1.5-1.5,1.3-2.7c-0.2-1.3-0.9-1.9-2.2-2.1c-1.8-0.2-3.6-0.4-5.3-0.6c-1-0.1-1,0.4-1.1,1.1c-0.1,2.4-0.2,4.7-0.5,7.1
		c-0.1,1.2,0.4,1.5,1.5,1.6c1.1,0.1,1.5-0.3,1.5-1.3c0-0.5,0.1-1,0.1-1.5c0-0.3-0.1-0.7,0.3-0.8c0.4-0.1,0.8,0.1,1,0.5
		c0.2,0.4,0.5,0.8,0.6,1.2C118.1,27.1,119.7,27.6,121.9,27.1z M175.1,117.9c-1.3-0.7-1.8-2-1.3-3.1c0.5-1.1,2.9-1.8,4.2-1.2
		c1.3,0.6,1.7,1.5,0.9,2.8c-0.7,1.1,0,2.2,0.7,2.7c0.6,0.4,1.5-0.4,1.7-1.1c0.7-2.2,0.2-4.3-1.1-6c-1.1-1.5-3-1.9-4.9-1.4
		c-1.9,0.5-3.5,1.5-3.8,3.6c-0.4,2.5,0.4,4.5,2.1,6.4c0.2,0.3,0.5,0.3,0.9,0.3c3,0,3.6-0.8,3-3.7c-0.1-0.3-0.1-0.5-0.2-0.8
		c-0.1-0.5-0.2-0.9-0.8-0.7c-0.4,0.1-1.1,0-1.1,0.8C175.3,116.9,175.5,117.4,175.1,117.9z M172.4,105.5c-0.1-0.3,0-0.7,0.8-0.9
		c0.9-0.2,0.9,0.4,1,1c0.1,0.8,0.2,1.5,0.3,2.3c0.1,0.5,0.1,1.2,0.9,1.2c0.8-0.1,1.1-0.5,1-1.3c-0.1-0.8-0.1-1.7-0.2-2.5
		c0-0.5-0.3-1,0.6-1.1c0.7-0.1,0.9,0.3,1,0.9c0.1,1,0.2,2.1,0.2,3.1c0,0.7,0.3,1.1,1.1,0.9c0.7-0.1,1.1-0.3,1-1.2
		c-0.3-2-0.5-4-0.6-6c-0.1-0.7-0.2-1.2-1.2-1c-2.5,0.4-5.1,0.7-7.7,1c-0.8,0.1-1.1,0.4-1,1.3c0.3,1.9,0.6,3.8,0.8,5.7
		c0.1,0.9,0.1,1.4,1.3,1.2c1.2-0.2,1.1-0.8,1-1.6C172.7,107.6,172.6,106.8,172.4,105.5z M180.5,77.6c0-3-1.8-4.8-4.9-4.8
		c-3.2-0.1-4.9,1.6-5,5c-0.1,3.3,1.7,5,5.2,5C178.7,82.9,180.4,81,180.5,77.6z M176,37.2c0.1-2.4-0.6-3.5-2.9-4.5
		c-2.2-0.9-4.4-0.6-5.7,0.7c-1.7,1.8-2.2,4.5-1.2,6.2c1.2,2,4.9,3.6,6.9,3c0.4-0.1,0.6-0.4,0.9-0.7c1.9-2.6,1.8-3-1.1-4.4
		c-0.2-0.1-0.3-0.2-0.5-0.3c-0.6-0.3-1-0.4-1.4,0.3c-0.4,0.7-0.4,1.1,0.5,1.4c0.2,0.1,0.7,0.1,0.6,0.6c0,0.4-0.3,0.6-0.6,0.6
		c-1.2,0.1-2.3-0.3-2.9-1.5c-0.5-1,0.4-3.2,1.6-3.9c1-0.6,2.2-0.4,2.7,0.5C173.5,36.9,174.8,36.7,176,37.2z M184.4,127.5
		c-0.7-2-1.4-4-1.9-6.1c-0.3-1-0.7-1.2-1.7-0.9c-2.3,0.7-4.5,1.4-6.8,2c-1,0.3-1.1,0.7-0.8,1.6c0.6,1.8,1.2,3.7,1.7,5.5
		c0.2,0.6,0.3,1.2,1.3,0.9c0.8-0.3,1.2-0.5,0.8-1.5c-0.4-0.9-0.6-2-0.9-2.9c-0.1-0.5-0.4-1,0.5-1.2c0.7-0.1,1.1-0.1,1.3,0.7
		c0.2,0.8,0.5,1.6,0.7,2.4c0.2,0.7,0.4,1.3,1.4,0.9c1-0.4,0.9-0.9,0.7-1.6c-0.2-0.7-0.5-1.5-0.7-2.2c-0.1-0.4-0.5-1,0.3-1.2
		c0.7-0.2,0.9,0.3,1,0.8c0.3,1,0.7,2.1,1,3.1c0.2,0.7,0.5,0.9,1.1,0.5C183.7,128.1,184.5,128.2,184.4,127.5z M34.5,110.7
		c1.1,0.1,1.8,0.1,2.5,0.1c0.8,0.1,1.2-0.1,1.3-1c0.1-2.1,0.3-4.1,0.5-6.2c0.1-0.7-0.2-1-1-1.1c-0.7-0.1-1.1,0.1-1.1,0.9
		c0,1.1-0.2,2.2-0.3,3.3c0,0.8-0.5,0.9-1.1,0.9c-0.8,0-1-0.4-0.9-1.1c0.1-0.8,0.1-1.5,0.2-2.3c0.1-0.7,0.3-1.3-0.8-1.5
		c-1.3-0.2-1.1,0.7-1.2,1.4c0,0.8-0.1,1.5-0.1,2.3c0,0.5-0.2,0.9-0.8,0.8c-0.5-0.1-0.8-0.3-0.8-0.9c0.1-1,0.2-2.1,0.3-3.1
		c0.1-0.8,0-1.2-0.9-1.3c-0.8,0-1.2,0.2-1.2,1c-0.2,2-0.4,4-0.6,5.9c-0.1,0.9,0.2,1.1,1,1.2C31.3,110.4,33.1,110.6,34.5,110.7z
		 M44.7,39.8c2.1-0.9,4-1.8,6-2.7c0.8-0.4,1-0.7,0.6-1.6c-0.4-1-0.9-0.8-1.6-0.4c-0.8,0.4-1.6,0.7-2.4,1.2c-0.7,0.4-1.2,0.5-1.7-0.4
		c-0.5-1,0.2-1.1,0.7-1.4c0.8-0.4,1.6-0.8,2.4-1.2c0.8-0.3,0.6-0.9,0.4-1.4c-0.3-0.7-0.7-0.6-1.2-0.3c-0.8,0.4-1.6,0.8-2.4,1.2
		c-0.5,0.2-0.9,0.5-1.3-0.2c-0.4-0.7,0.1-0.9,0.6-1.1c0.9-0.4,1.8-0.9,2.8-1.3c0.7-0.3,1.1-0.6,0.6-1.4c-0.4-0.8-0.8-0.8-1.5-0.5
		c-1.8,0.9-3.6,1.7-5.4,2.5c-0.7,0.3-1,0.5-0.6,1.4c1.1,2.3,2.1,4.7,3.2,7C44,39.4,44.1,40,44.7,39.8z M82,18.6
		c-1.4-0.1-2.5,0.2-2.7,2.2C79,23,78.4,25.2,78,27.4c-0.1,0.5-0.6,1.5,0.3,1.5c0.8,0,2,0.4,2.4-0.9c0.6-1.7,2.8-2,4-0.6
		c0.9,1.1,2,0.2,2.8,0c1-0.3,0-1-0.2-1.5c-1.2-2.1-2.4-4.2-3.7-6.3C83.2,19,82.9,18.3,82,18.6z M122,27.6c1.5-0.2,2.8,0.7,3.6-0.9
		c0.3-0.5,3.3-0.1,3.5,0.5c0.6,1.9,1.9,1.4,3.3,1.4c-0.7-3.1-1.4-6-1.9-9c-0.2-1.2-1.1-1.1-1.9-1.2c-0.7-0.1-1.5-0.5-2,0.5
		C125.2,21.7,123.7,24.5,122,27.6z M28,76.9c-0.1,1.4,0.2,2.4,2,2.7c2.2,0.4,4.3,1.1,6.5,1.6C37,81.3,37.9,82,38,81
		c0.1-0.8,0.5-1.9-0.5-2.5c-1.9-1.3-2-2.4-0.7-4.1c0.7-0.9,0.5-2.1,0.1-2.9c-0.3-0.6-1.1,0.2-1.6,0.5c-2.2,1.1-4.3,2.3-6.4,3.4
		C28.3,75.7,27.7,76,28,76.9z M75.3,22.4c-1.5-2.1-2.7-2.5-5.5-1.8c-2,0.6-3.2,2.2-3.3,4.4c-0.1,2.2,1.8,5,3.6,5.4
		c2.1,0.4,5-0.9,5.8-2.6c0.3-0.6,0.6-1.3,0.1-1.8c-0.4-0.4-1.2-0.3-1.8-0.3c-0.9,0-0.7,0.8-0.9,1.3c-0.5,0.9-1.2,1.5-2.4,0.9
		c-1-0.5-1.7-2.8-1.2-4.2c0.3-1,1.1-1.3,2.1-1.2c0.1,0,0.1,0,0.2,0.1C73.3,24.1,74.3,23,75.3,22.4z M172.3,67.9
		c-0.1,1.1,0.2,2.2,1.1,3c0.4,0.3,1,1.3,1.5,0.4c0.4-0.6,2.1-1.3,0.4-2.4c-0.6-0.4-0.9-1.1-0.6-1.8c0.4-0.8,1-1.3,2-1.2
		c0.6,0.1,1.3,0.2,1.9,0.4c0.8,0.2,1.2,0.7,1.4,1.4c0.1,0.8,0.1,1.6-0.8,2c-1.3,0.6-1,1.9-0.6,2.6c0.4,0.7,1.3-0.1,2-0.5
		c0.3-0.2,0.5-0.4,0.7-0.6c1.4-1.6,1.7-4.3,0.8-5.7c-1.3-2-4.1-2.9-6.5-2.2C173.5,63.7,172.3,65.5,172.3,67.9z M32.3,85.9
		c-1.3,0.8-2.5,1.3-3.1,2.1c-0.6,0.8-0.2,2.1,0.2,3.2c1.4-1.1,2.8-2,4-3c1.4-1.2,3-0.9,4.6-1.1c1.4-0.2,0.6-1.3,0.7-2
		c0.1-0.7-0.3-1.1-1-0.9c-2.2,0.6-4.1-0.2-5.9-1.5C30.9,82,29.9,81.5,29,81C27.9,83.9,29.9,84.9,32.3,85.9z M106.6,16.7
		c-1,0-2.1,0-3.1,0c-0.8,0-1.6-0.3-1.7,1.1c0,1.5,0.8,1.4,1.7,1.3c1.4-0.2,1.6,0.5,1.5,1.7c-0.1,1.5,0,3.1,0,4.6
		c-0.1,1.3,0.8,1,1.6,1c0.8,0,1.6,0.2,1.5-1.1c-0.1-1.5,0.1-3,0-4.4c-0.1-1.4,0.3-2,1.8-1.8c0.9,0.1,1.4,0,1.4-1.2
		c0-1.3-0.6-1.3-1.5-1.3C108.6,16.7,107.6,16.7,106.6,16.7z M176,87.1c0.8,0,1.7,0.1,2.7,0.2c0.4,0,0.7,0.1,0.9-0.5
		c0.6-1.6-0.1-2.7-1.8-2.7c-1.5,0-3.1,0-4.6-0.1c-3.2,0-3.2,0-3.4,3.1c0,1-0.1,1.9-0.1,2.9c-0.1,0.9-0.2,1.8,1.3,1.7
		c1.3,0,1.2-0.7,1.3-1.6c0-3.1,0.1-3.1,3.2-3C175.5,87.1,175.6,87.1,176,87.1z M174.6,92.8c-1.6,0.1-3.7-0.4-4.6,0.4
		c-1.1,1-0.2,3.1-0.2,4.8c0,0.5,0.1,1,0,1.5c-0.1,0.9,0.3,1.2,1.2,1.2c1,0,1.2-0.5,1.1-1.3c0-0.6,0.1-1.2,0-1.7
		c-0.2-1.3,0.2-1.9,1.6-1.8c1.3,0.1,2.7-0.2,4-0.1c1.2,0,1.6-0.4,1.6-1.7c0-1.4-0.7-1.4-1.7-1.3C176.7,92.9,175.6,92.8,174.6,92.8z
		 M90.6,27.2c1.8-0.2,3.5-0.3,5.2-0.4c0.9-0.1,1.1-0.4,1-1.2c-0.1-0.8-0.3-1.2-1.2-1.1c-0.8,0.1-1.7,0-2.5,0.1
		c-1,0.1-1.3-0.3-1.4-1.3c0-1.5-0.3-3.1-0.4-4.6c0-1.5-1-1.1-1.9-1.2c-1.1,0-1.3,0.4-1.2,1.4c0.3,2.2,0.5,4.5,0.7,6.7
		C89.1,26.8,89.3,27.6,90.6,27.2z M155.2,25.5c0.1-0.9-0.8-0.8-1.3-0.9c-0.6-0.2-1.4-0.8-1.7,0.3c-0.9,2.5-1.7,5.1-2.6,7.6
		c-0.3,0.7,0.1,1.2,0.8,1.2c0.7,0,1.7,1.2,2.2-0.1C153.4,31,154.2,28.3,155.2,25.5z M66.2,31.4c-0.8-2.9-1.5-5.7-2.3-8.5
		c-0.3-1-1.1-0.3-1.6-0.1c-0.5,0.2-1.5,0-1.3,1c0.7,2.7,1.4,5.3,2.1,8c0.3,1.1,1.1,0.4,1.6,0.3C65.3,32.1,66.1,32.2,66.2,31.4z
		 M135,29.6c1,0.4,1.1-0.2,1.2-0.9c0.4-2.4,0.9-4.8,1.4-7.2c0.2-1-0.1-1.3-1.1-1.5c-1-0.3-1.4,0.1-1.5,1c-0.4,2.3-0.7,4.7-1.3,7
		C133.5,29.3,134,29.6,135,29.6z"/>
	<path class="st1" d="M29.5,173c0.3-1.8-0.2-3.6-0.5-5.3c-0.7-3.4-1.1-6.9-1.3-10.3c-0.1-1.2,0.1-2.3,0.6-3.4c0.6-1.5,1.8-2,3.3-1.6
		c1.4,0.4,2.7,1,3.7,2c2.9,3,5.8,6,8.8,9.2c0.7-1.2,0.1-1.9-0.1-2.6c-3.2-8.2-4.8-16.7-5.2-25.4c-0.3-5.7,1.2-11.4,2-17
		c1.8-11.8,1.9-23.7,0.8-35.6c-1-10.7-3.5-21-6.7-31.3c-0.3-0.9-0.6-1.6,0.5-2.4c12.4-8.7,26-14.6,40.7-17.9
		c13.8-3.1,27.7-4.3,41.8-2.5c13,1.6,25.4,5.4,37.4,10.6c5.9,2.5,11.4,5.6,17,8.8c1,0.6,1.2,1.1,0.8,2.2c-2.1,5.7-3.7,11.5-4.8,17.5
		c-2.9,15.2-3.1,30.4-0.2,45.7c1.2,6.5,2.7,13,3.7,19.5c1.8,10.9,0.4,21.3-5,31c0.9,0.4,1.3-0.4,1.8-0.7c4.4-3.4,8.6-7,13.3-9.9
		c1.5-0.9,3-1.6,4.7-0.6c1.6,0.9,1.7,2.6,1.7,4.2c0,3.9-1.5,7.6-2.1,11.4c-0.2,1.2-0.7,2.4-0.5,3.6c-1,2.5-2.9,4.4-4.6,6.5
		c-0.4,0.6-1,0.5-1.6,0.4c0.9-6.8,2.7-13.5,3.8-20.7c-3.7,2.4-6.8,4.9-9.8,7.5c-6.9,5.9-14.8,10.3-21.5,16.3c-2.8,2.4-5.8,4.5-9,6.3
		c-14.3,8-29.6,11.4-45.9,9.6c-10.7-1.2-20.9-4.3-30.2-10c-6.2-3.8-11.4-8.8-17.3-12.9c-5.7-4-10-9.7-15.1-14.3
		c-0.5-0.4-0.8-1.2-1.7-1.2c0.9,6.5,1.8,12.9,2.7,19.3C33,176.9,31.3,174.9,29.5,173z M106.8,33.7C94.5,33.8,85,35,75.5,37.2
		c-11.9,2.8-23,7.3-33.2,14.2c-0.8,0.6-1.4,1-1.1,2.3c2.9,10.4,4.8,20.9,5.8,31.6c1.1,12.1,0.9,24.2-1.3,36.2
		c-1.7,9.6-1.9,19,0.3,28.5c1.8,7.4,4.2,14.5,9,20.5c9.2,11.4,21.3,18.1,35.6,21.2c10.5,2.2,21.1,2.2,31.4-0.4
		c17.3-4.3,30.9-13.8,39.4-30c4.9-9.2,6.1-18.9,4.1-29c-2.1-10.9-4.8-21.8-5.4-32.9c-0.9-15.7,0.6-31.1,5.5-46.1
		c0.5-1.6,0.1-2.1-1.2-2.9c-7.7-4.1-15.7-7.5-23.9-10.2C128.9,36.1,116.7,33.9,106.8,33.7z"/>
	<path class="st2" d="M35.2,178.5c-0.9-6.4-1.8-12.8-2.7-19.3c0.9,0,1.3,0.7,1.7,1.2c5.2,4.6,9.5,10.3,15.1,14.3
		c5.9,4.2,11.1,9.2,17.3,12.9c9.3,5.7,19.4,8.8,30.2,10c16.3,1.8,31.6-1.6,45.9-9.6c3.2-1.8,6.2-3.9,9-6.3
		c6.8-6,14.7-10.5,21.5-16.3c3-2.6,6.1-5.1,9.8-7.5c-1.1,7.2-2.9,13.8-3.8,20.7c-1.3,0.2-2.6,0.7-3.8,1.2c-0.7,0.3-1.5,0.7-1.6,1.3
		c-0.5,2.7-2.8,3.2-4.7,4.2c-1.1,0.6-2.1,1.4-2,2.6c0.1,1.7-1,2.1-2.1,2.7c-7.8,4.3-16.3,6.6-24.9,8.5c-8.8,1.9-17.7,2.4-26.7,2.5
		c-14.8,0.1-29.4-1.4-43.7-5.6C57.1,192.5,45.3,187.2,35.2,178.5z"/>
	<path class="st3" d="M54,194.6c37.7,12.9,75.2,15.9,112.8-0.8c0,4.6,0,9.4,0,14.2c0,1-0.6,1.6-1.6,1.9c-12.8,4.9-26,8.7-39.7,10.2
		c-15.9,1.8-31.6,0.3-47.2-2.9c-6.6-1.3-13-3-19.5-4.7c-1.3-0.3-1.7-0.9-1.9-2.2c-0.9-5-1.9-10-2.8-15C54,195,54,194.7,54,194.6z
		 M82.8,211.7c-0.5-0.1-0.9,0-0.9,0.7c0,0.6,0.2,1.2,0.8,1.4c0.9,0.4,1.9,0.5,2.6-0.5c0.6-0.9,0.4-1.8-0.6-2.4
		c-0.5-0.3-1.4-0.7-1-1.3c0.3-0.5,1-0.1,1.3,0.5c0.1,0.2,0.4,0.3,0.7,0.1c0.3-0.2,0.2-0.6,0-0.9c-0.3-0.7-0.9-0.9-1.5-1
		c-0.7-0.1-1.2,0.3-1.6,0.9c-0.5,1,0.2,1.5,0.7,2.2C83.1,211.5,83,211.6,82.8,211.7z M64.6,205.8c-0.5-0.5-0.2-0.9,0-1.4
		c0.2-0.5,0.3-1-0.4-1.3c-0.8-0.3-1,0.3-1.2,0.8c-0.4,1.2-0.8,2.4-1.2,3.6c-0.1,0.3-0.1,0.7,0.2,0.8c0.4,0.2,0.6-0.2,0.7-0.5
		c0.2-0.6,0.2-1.3,0.7-1.8c0.5,0.9-0.6,2.1,0.4,2.7c0.9,0.6,0.8-1,1.5-1c0.3,0.1,0.2,0.3,0.2,0.5c0,0.4-0.6,1.1,0.3,1.2
		c0.6,0.1,0.5-0.6,0.6-1c0.4-1.1,0.7-2.2,1-3.3c0.1-0.5,0.2-1-0.5-1.3c-0.5-0.2-0.8,0.1-1.1,0.5C65.5,205,65.4,205.7,64.6,205.8z
		 M121,214.3c0.6,0.1,0.8,0.6,1.2,0.9c0.4,0.5,0.6,1.6,1.4,1.1c0.6-0.4-0.4-1-0.6-1.5c-0.2-0.4-0.8-0.6-0.2-1.1
		c0.9-0.7,0.8-1.6,0.1-2.3c-0.7-0.8-1.8-0.7-2.7-0.4c-1.1,0.3-0.5,1.3-0.6,2c-0.1,0.5-0.1,1,0,1.5c0.2,0.8-0.5,2.2,0.7,2.1
		C121.4,216.5,120.4,215.1,121,214.3z M135,212.3c0.4,0.6,0.7,1.1,1,1.5c0.3,0.4,0.7,0.7,1.1,0.4c0.7-0.4,0-0.8-0.2-1.1
		c-0.5-0.6-1-1.1-0.4-2.1c0.3-0.5,0.1-1.4-0.5-1.9c-0.9-0.7-1.8-0.1-2.6,0.1c-0.9,0.3-0.2,1.1-0.2,1.7c0,0.5,0.2,1,0.3,1.5
		c0.3,0.8,0,2.4,1,2.3c0.8,0-0.1-1.4,0.2-2.2C134.7,212.6,134.8,212.6,135,212.3z M74.1,209.5c-0.2-1.1-0.4-2.1-0.6-3
		c-0.1-0.3-0.2-0.6-0.6-0.7c-0.4-0.1-0.6,0.2-0.7,0.5c-0.4,1.4-0.7,2.9-1,4.3c-0.1,0.3-0.1,0.7,0.4,0.7c0.4,0.1,0.4-0.4,0.6-0.6
		c0.3-0.5,0-1.4,0.9-1.8c0.2,0.9,0.4,1.7,0.6,2.5c0.1,0.3,0.3,0.6,0.6,0.6c0.4,0,0.5-0.3,0.6-0.6c0.3-1.4,0.7-2.9,1.1-4.3
		c0.1-0.3,0-0.7-0.4-0.8c-0.4-0.1-0.5,0.4-0.6,0.6C74.7,207.8,74.7,208.7,74.1,209.5z M106.3,214.5c-0.6-1.3-1-2.1-1.4-3
		c-0.1-0.3-0.4-0.5-0.7-0.5c-0.4,0-0.4,0.4-0.5,0.7c-0.1,1.4-0.2,2.8-0.2,4.2c0,0.3,0,0.7,0.5,0.7c0.4,0,0.5-0.3,0.5-0.7
		c0.1-0.7,0.1-1.4,0.2-2.6c0.6,1.3,0.9,2.1,1.3,2.8c0.4,0.6,1.1,0.8,1.2,0c0.2-1.7,0.1-3.4,0.1-5.1c-0.2,0-0.4,0-0.5,0
		C106.3,212.1,106.6,213.1,106.3,214.5z M90.7,215.6c1.3-1,0.7-2.3,1.6-3.1c0.4,1,0.7,1.8,1,2.7c0.1,0.3,0.4,0.5,0.7,0.5
		c0.3,0,0.4-0.3,0.4-0.5c0.1-1.7,0.7-3.3,0.3-5.1c-1.1,0.8-0.3,2.1-1.3,2.8c-0.3-0.8-0.6-1.6-0.8-2.4c-0.1-0.4-0.2-0.7-0.7-0.8
		c-0.6,0-0.5,0.4-0.6,0.8C91.2,212.1,91,213.6,90.7,215.6z M160.1,205.9c0-1.7-1.3-3.3-2.6-3.2c-1.3,0.1-2.3,0.6-2.3,2.1
		c0,1.9,1.4,3.8,2.7,3.7C159.4,208.4,160,207.4,160.1,205.9z M99.5,215.6c-0.4-1.5-0.6-3.1-1.1-4.6c-0.3-1-1.1-0.8-1.5,0
		c-0.7,1.3-1.1,2.7-1.7,4.1c-0.1,0.3-0.4,0.6,0.1,0.8c0.3,0.1,0.6,0,0.8-0.3c1-1.4,1.8-1.3,2.4,0.3c0.1,0.4,0.5,0.4,0.8,0.3
		C99.5,216.2,99.5,215.9,99.5,215.6z M132.9,213.2c0-1.9-1.3-3.6-2.6-3.5c-1.5,0.1-2.1,1.2-2.1,2.6c0,1.9,1.1,3.3,2.5,3.3
		C132.3,215.5,132.8,214.4,132.9,213.2z M147.9,208.9c0,0.6,0,1.1,0,1.6c0,0.4-0.3,1,0.3,1.1c0.7,0.2,0.7-0.4,0.9-0.9
		c0.3-1,1.1-1.1,1.9-0.6c0.3,0.2,0.4,1,1,0.6c0.6-0.5-0.2-0.9-0.4-1.3c-0.2-0.5-0.5-0.9-0.9-1.3c-0.7-0.8-0.9-2.5-2-2.2
		C147.3,206.2,148.3,207.9,147.9,208.9z M125.7,210.4c-0.5,0.2-1.5-0.4-1.5,0.8c0,1.5,0.2,2.9,0.3,4.4c0,0.3,0.1,0.7,0.5,0.6
		c0.5,0,0.4-0.4,0.4-0.7c-0.1-0.9-0.1-1.5,1.1-1.7c1.1-0.1,1.4-1,1.2-2C127.5,210.8,126.8,210.3,125.7,210.4z M116.4,211
		c-1.3,0.1-1.8,1.3-1.8,2.7c-0.1,2,0.9,3.3,2.2,3.2c1.7-0.2,2.1-1.5,2.2-2.9C119.2,212.3,118.2,211,116.4,211z M90,215
		c-0.2-1.7-0.5-3.3-0.7-5c-0.1-0.4-0.2-0.8-0.6-0.9c-0.6-0.2-0.7,0.4-0.9,0.7c-0.5,1-1,1.9-1.4,2.9c-0.2,0.5-1,1.1-0.5,1.6
		c0.7,0.6,0.7-0.6,1.2-0.8c0.7-0.3,1.5-0.3,1.9,0.6C89.2,214.6,89.2,215,90,215z M140.2,212.8c-0.7,0-1.4,0.4-1.6-0.6
		c-0.1-0.6,0.3-0.7,0.8-0.9c0.5-0.2,1.4,0.2,1.2-0.8c-0.2-0.7-0.9-0.1-1.3-0.1c-0.4,0-0.9,0.2-1-0.5c-0.1-0.5,0.4-0.6,0.7-0.7
		c0.3-0.1,0.6-0.2,0.9-0.3c0.3-0.1,0.6-0.2,0.6-0.6c-0.1-0.4-0.4-0.4-0.7-0.4c-2.2,0-2.8,0.6-2.4,2.7c0.1,0.5,0.3,1,0.3,1.5
		c0,2,1.1,2.1,2.6,1.6c0.4-0.1,1.3,0,1.2-0.6C141.5,212.3,140.7,212.9,140.2,212.8z M143.7,211.1c0.4,1,0.8,1.7,2.1,1.3
		c0.8-0.2,1.6-0.5,1.5-1.4c-0.1-1-0.4-2.1-1.7-2.2c-0.3,0-0.5-0.1-0.8-0.1c-0.4-0.1-0.9-0.1-0.8-0.6c0.1-0.4,0.6-0.4,1-0.3
		c0.4,0.1,1,0.9,1.2,0c0.2-0.8-0.6-1.1-1.3-1.1c-0.9-0.1-1.7,0.3-1.9,1.3c-0.2,0.9,0.2,1.6,1.2,1.9c0.6,0.3,2.1-0.4,1.8,0.9
		c-0.3,1.3-1.3,0-2,0C144,210.9,143.9,211,143.7,211.1z M79.7,208.9c0.4-1,0-1.6-0.9-1.9c-0.8-0.2-1.5-0.1-2,0.7
		c-0.5,0.8-0.3,1.5,0.4,2c0.2,0.2,0.5,0.4,0.8,0.6c0.4,0.3,0.8,0.6,0.4,1.1c-0.3,0.4-0.8,0.3-1.2,0c-0.4-0.3-0.4-1.5-1.1-0.7
		c-0.5,0.6,0.1,1.5,0.9,1.8c0.9,0.4,1.8,0.4,2.4-0.5c0.6-1,0.5-1.9-0.6-2.6c-0.4-0.3-1.5-0.6-0.8-1.3c0.7-0.7,1,0.4,1.4,0.8
		C79.3,209,79.5,208.9,79.7,208.9z M69.5,210.6c0.4,0.1,0.8,0.3,0.9-0.3c0.1-0.5-0.4-0.6-0.7-0.7c-0.2-0.1-0.5-0.2-0.7-0.2
		c-0.4-0.1-0.9-0.2-0.7-0.8c0.2-0.5,0.3-0.9,1.1-0.7c0.5,0.1,1.2,0.8,1.5,0c0.3-0.8-0.7-0.7-1.2-0.9c-0.4-0.1-0.8-0.3-0.7-0.8
		c0.1-0.7,0.7-0.3,1.1-0.3c0.2,0,0.5,0.2,0.7,0.2c0.3,0.1,0.7,0.1,0.8-0.3c0.1-0.4-0.2-0.5-0.5-0.7c-1.9-1-2.6-0.7-3.2,1.4
		c-0.1,0.4-0.2,0.7-0.3,1.1C66.9,210.1,67,210.2,69.5,210.6z M150,204.9c1.2,1.7,2.1,3.1,3,4.5c0.2,0.4,0.5,0.8,1,0.5
		c0.5-0.2,0.7-0.5,0.6-1.1c-0.1-1.4-0.1-2.8-0.2-4.2c0-0.4,0-0.8-0.6-0.8c-0.5,0.1-0.6,0.4-0.6,0.8c0.1,1,0.2,2.1,0.3,3.2
		C152.2,207.2,152.3,205.1,150,204.9z M109.8,214c0.1,1.2,0.3,2.4,1.5,2.9c0.8,0.3,1.6,0,2.2-0.8c0.2-0.3,0.5-0.7,0.1-1
		c-0.3-0.2-0.6,0-0.8,0.3c-0.4,0.7-1,0.6-1.4,0.1c-0.7-0.9-0.6-1.9-0.1-2.9c0.3-0.6,0.9-0.5,1.3-0.2c0.4,0.3,0.8,0.7,1.1,0.2
		c0.3-0.5-0.2-0.9-0.7-1.2c-0.6-0.5-1.4-0.5-2-0.1C110,211.9,110,213,109.8,214z M102.7,213.5c-0.3-0.8,0.6-2.3-0.5-2.4
		c-0.7-0.1-0.4,1.6-0.4,2.5c0,0.9-0.7,2.5,0.4,2.6C103,216.2,102.4,214.4,102.7,213.5z"/>
	<path class="st3" d="M39.3,208.8c0-5.8,0-11.4,0-17c0-0.7,0.2-1.2,0.8-1.6c3.5-2.4,8.9-0.5,9.7,3.6c1,4.8,1.9,9.6,2.8,14.6
		C48.2,206.3,43.8,206.4,39.3,208.8z"/>
	<path class="st3" d="M37.3,203.9c-3.5-0.7-6.8-0.6-10,1.8c0-1.1,0-1.9,0-2.7c0-4.9,0-9.8,0-14.7c0-3,0.5-3.6,3.4-4.3
		c3.5-0.8,7.3,0.8,8.5,3.7c0.3,0.8,0.6,1.6-0.8,1.4c-1.2-0.1-1.2,0.6-1.2,1.4C37.3,194.9,37.3,199.4,37.3,203.9z"/>
	<path class="st0" d="M181.6,203.7c-4.1-1.4-7.9-1.5-12,0.8c0-5.2,0-10,0-14.9c0-0.4,0.1-0.8,0.3-1.1c1.2-2,3.2-2.2,5.2-2
		c1.8,0.1,3.6,0.6,4,2.6C180.1,193.8,180.8,198.6,181.6,203.7z"/>
	<path class="st3" d="M175,183.9c1.2-2.3,4.2-3.7,6.9-3.3c3.6,0.5,4.9,1.7,5.5,4.9c1,4.8,1.9,9.7,2.9,14.7c-2.2-0.7-4.1-1.8-6.3-1.7
		c-0.7,0-0.7-0.7-0.7-1.2c-0.3-1.7-0.6-3.4-0.8-5.1C182,186.8,179.6,184.7,175,183.9z"/>
	<path class="st0" d="M176.6,205c1.7-0.2,3.4,0.5,5,1.4c2.8,1.5,2.8,5.1,0.1,6.7c-3.6,2-7.3,2-10.8-0.1c-2.7-1.6-2.6-5.1,0.2-6.7
		C172.5,205.4,174.6,205,176.6,205z"/>
	<path class="st0" d="M46.4,209.3c2.2-0.2,4.1,0.3,5.8,1.6c2.3,1.8,2.2,4.8-0.4,6.1c-3.5,1.8-7.1,2-10.7,0.1c-2.9-1.5-3-4.4-0.4-6.3
		C42.5,209.5,44.4,209.1,46.4,209.3z"/>
	<path class="st2" d="M37.3,211c0,0.6,0,1.2,0,1.7c0,2.9-0.3,3.2-3.1,3.1c-1,0-2.1-0.2-3-0.4c-2.3-0.6-3.9-2.5-4-4.4
		c-0.1-2,1.4-4.1,3.7-4.9c1.7-0.6,3.6-0.4,5.4-0.3c0.8,0.1,1.2,0.5,1.1,1.4C37.2,208.6,37.3,209.8,37.3,211z"/>
	<path class="st3" d="M192.9,206.9c-0.2,3-2.4,4.1-4.7,5.1c-1.6,0.7-2.2,0.4-2.4-1.4c-0.3-2.8-0.9-5.6-1.4-8.4
		c-0.2-1.1-0.1-1.5,1.2-1.2c2.4,0.5,4.6,1.2,6.2,3.1C192.5,205,192.8,205.9,192.9,206.9z"/>
	<path class="st4" d="M32.9,40.8c0.5,1,1,1.9,1.5,2.9c0.4,0.7,0.8,1.2-0.4,1.8c-1,0.5-1.4,0.3-1.9-0.6c-1-2.1-2.2-4.1-3.3-6.1
		c-0.4-0.7-0.5-1.1,0.4-1.7c2.4-1.5,2.4-1.6,4.3,0.5c0.5,0.6,1.1,1.2,1.9,2.1c0.1-1.7-0.4-2.9-0.7-4.2c-0.5-2.1,1.4-2.2,2.4-2.8
		c1.2-0.8,1.3,0.6,1.6,1.2c1.1,1.9,2.1,3.8,3.2,5.7c0.4,0.8,0.7,1.3-0.4,1.8c-1,0.5-1.5,0.4-1.9-0.6c-0.6-1.2-1.3-2.4-2.4-3.4
		c0.4,1.4,0.8,2.8,1.2,4.2c0.2,0.8,0.2,1.4-0.7,1.9c-0.9,0.5-1.4,0.3-2-0.4c-0.8-0.9-1.7-1.8-2.5-2.7c-0.2,0-0.3,0-0.5,0
		C32.8,40.6,32.8,40.7,32.9,40.8z"/>
	<path class="st4" d="M145.8,26.9c0.3-1,0.6-1.9,0.8-2.9c0.2-1,0.4-1.6,1.7-1.2c1.5,0.3,1.3,1.1,1,2.1c-0.6,2-1.1,4.1-1.7,6.1
		c-0.2,0.6,0.1,1.7-1,1.5c-0.9-0.1-2.1-0.1-2.5-1.4c-0.5-1.6-1.2-3.1-1.9-5.1c-0.4,1.5-0.8,2.6-1.1,3.8c-0.3,1.3-1.1,0.9-1.9,0.7
		c-0.8-0.2-1.2-0.4-0.8-1.4c0.7-2.1,1.1-4.3,1.8-6.5c0.2-0.6-0.1-1.7,1-1.5c0.9,0.2,2.1,0,2.5,1.4c0.5,1.5,1.1,3,1.7,4.5
		C145.5,26.9,145.6,26.9,145.8,26.9z"/>
	<path class="st5" d="M158.5,31.8c-0.4,1.1-1,2.1-1.3,3.2c-0.3,1-0.8,1.1-1.7,0.7c-0.8-0.4-1.3-0.6-0.8-1.6c0.9-2.1,1.6-4.2,2.5-6.3
		c0.2-0.6,0.1-1.6,1.2-1.4c1,0.2,2,0.4,2.3,1.7c0.3,1.7,0.8,3.4,1.3,5.3c0.5-1.4,1.1-2.4,1.3-3.5c0.3-1.5,1.2-1,2.1-0.8
		c1.3,0.3,0.9,1.1,0.5,1.8c-0.8,2-1.6,3.9-2.4,5.9c-0.2,0.6-0.2,1.7-1.1,1.4c-1-0.3-2.2-0.4-2.5-1.8c-0.3-1.6-0.7-3.1-1-4.7
		C158.7,31.9,158.6,31.9,158.5,31.8z"/>
	<path class="st5" d="M33.9,94.6c-1.1,0-2.2-0.1-3.2,0c-1.1,0.1-1.3-0.4-1.3-1.4c0-0.9,0.1-1.5,1.2-1.4c2.2,0.1,4.4,0,6.6,0.1
		c0.7,0,1.7-0.6,1.9,0.6c0.2,1,0.3,2.1-0.9,2.9c-1.4,0.8-2.6,1.8-4.4,3.1c1.6,0,2.6,0,3.5,0c0.9,0,1.9-0.3,1.9,1.3
		c0,1.8-1,1.4-2,1.4c-2,0-4,0-6,0c-0.6,0-1.6,0.5-1.8-0.5c-0.1-0.9-0.4-2,0.7-2.8c1.3-0.9,2.6-1.9,3.8-2.9
		C34,94.8,33.9,94.7,33.9,94.6z"/>
	<path class="st5" d="M38.2,112.1c0,2.2-0.2,4-2.7,4.5c-0.5,0.1-1.6,0.2-1.5,0.9c0.1,0.7,0.8,1.3,1.6,1.5c0.8,0.2,1.8,0.1,1.5,1.6
		c-0.3,1.3-0.5,1.9-2.1,1.5c-2.1-0.5-4.2-0.7-6.3-0.9c-1.4-0.1-1.4-0.8-1.3-1.9c0.1-1.3,0.8-1.2,1.7-1.2c0.5,0,1,0.8,1.4,0.2
		c0.4-0.6-0.2-1.1-0.6-1.5c-1.8-1.5-2-3.3-1.2-5.4c0.1,0,0.3,0,0.3,0c3,3.3,3,3.3,7.1,1.5C36.9,112.7,37.5,112.4,38.2,112.1z"/>
	<path class="st5" d="M60.5,30c0.1,2-0.6,2.9-1.6,3.7c-1.5,1-3.2,1.3-4.8,1.9c-0.7,0.3-1.1-0.1-1.3-0.7c-0.8-2.5-1.7-5-2.5-7.5
		c-0.2-0.7-0.1-0.9,0.6-1.1c1.4-0.4,2.9-0.8,4.2-1.3c1.9-0.7,3.1,0.3,4.2,1.6C60.1,27.8,60.5,29.2,60.5,30z M57.6,30.9
		c-0.3-1-0.4-2-1-2.8c-0.6-0.9-1.5-1-2.4-0.6c-1,0.5-0.3,1.2-0.1,1.8c0.2,0.7,0.5,1.5,0.8,2.2c0.2,0.5,0.1,1.3,0.9,1.1
		C56.7,32.3,57.6,32,57.6,30.9z"/>
	<path class="st5" d="M121.9,27.1c-2.3,0.5-3.8,0-4.4-2.3c-0.1-0.4-0.4-0.8-0.6-1.2c-0.2-0.4-0.6-0.6-1-0.5
		c-0.4,0.1-0.3,0.5-0.3,0.8c-0.1,0.5-0.1,1-0.1,1.5c0,1.1-0.4,1.4-1.5,1.3c-1.1-0.1-1.6-0.4-1.5-1.6c0.2-2.4,0.3-4.7,0.5-7.1
		c0-0.7,0.1-1.3,1.1-1.1c1.8,0.2,3.6,0.4,5.3,0.6c1.2,0.2,2,0.8,2.2,2.1c0.2,1.2-0.2,2.2-1.3,2.7c-0.9,0.4-0.6,0.6-0.2,1.1
		C120.8,24.6,121.3,25.9,121.9,27.1z M117.1,21.2c0.8,0,1.6-0.1,1.5-1.1c-0.1-1-1-1-1.8-1.1c-0.8-0.1-1,0.3-1,1
		C115.8,21.1,116.3,21.3,117.1,21.2z"/>
	<path class="st5" d="M175.1,117.9c0.4-0.5,0.1-1,0.2-1.5c0-0.8,0.7-0.6,1.1-0.8c0.7-0.2,0.8,0.2,0.8,0.7c0,0.3,0.1,0.5,0.2,0.8
		c0.7,2.9,0,3.7-3,3.7c-0.3,0-0.6,0-0.9-0.3c-1.6-1.8-2.5-3.9-2.1-6.4c0.4-2.1,1.9-3.1,3.8-3.6c1.9-0.5,3.8-0.1,4.9,1.4
		c1.3,1.7,1.7,3.9,1.1,6c-0.2,0.7-1.1,1.6-1.7,1.1c-0.7-0.5-1.4-1.6-0.7-2.7c0.8-1.3,0.4-2.2-0.9-2.8c-1.3-0.6-3.7,0.2-4.2,1.2
		C173.3,115.9,173.9,117.2,175.1,117.9z"/>
	<path class="st4" d="M172.4,105.5c0.2,1.2,0.3,2,0.4,2.9c0.2,0.8,0.2,1.4-1,1.6c-1.2,0.2-1.2-0.3-1.3-1.2c-0.2-1.9-0.5-3.8-0.8-5.7
		c-0.2-0.9,0.2-1.2,1-1.3c2.6-0.3,5.1-0.6,7.7-1c1-0.2,1.1,0.3,1.2,1c0.2,2,0.4,4,0.6,6c0.1,0.9-0.3,1.1-1,1.2
		c-0.8,0.1-1-0.2-1.1-0.9c-0.1-1-0.2-2.1-0.2-3.1c0-0.6-0.3-0.9-1-0.9c-0.8,0.1-0.6,0.6-0.6,1.1c0.1,0.8,0.1,1.7,0.2,2.5
		c0.1,0.8-0.1,1.2-1,1.3c-0.9,0.1-0.8-0.6-0.9-1.2c-0.1-0.8-0.2-1.5-0.3-2.3c-0.1-0.6-0.1-1.2-1-1
		C172.5,104.8,172.4,105.3,172.4,105.5z"/>
	<path class="st5" d="M180.5,77.6c0,3.4-1.7,5.2-4.8,5.2c-3.5,0-5.2-1.7-5.2-5c0.1-3.4,1.7-5.1,5-5
		C178.7,72.9,180.5,74.6,180.5,77.6z M176.2,79.9c1,0.2,2-0.5,1.9-2c-0.1-1.6-1.3-2-2.7-2.1c-1.4,0-2.7,0.3-2.6,2
		C172.9,79.5,174.4,79.7,176.2,79.9z"/>
	<path class="st5" d="M176,37.2c-1.1-0.5-2.4-0.3-3.1-1.8c-0.4-1-1.7-1.1-2.7-0.5c-1.1,0.6-2,2.9-1.6,3.9c0.6,1.2,1.6,1.6,2.9,1.5
		c0.3,0,0.6-0.3,0.6-0.6c0.1-0.5-0.4-0.5-0.6-0.6c-0.9-0.3-0.9-0.7-0.5-1.4c0.4-0.7,0.8-0.7,1.4-0.3c0.2,0.1,0.3,0.2,0.5,0.3
		c2.9,1.4,3,1.8,1.1,4.4c-0.2,0.3-0.5,0.6-0.9,0.7c-2,0.5-5.7-1.1-6.9-3c-1-1.7-0.5-4.4,1.2-6.2c1.3-1.4,3.6-1.6,5.7-0.7
		C175.4,33.7,176.1,34.8,176,37.2z"/>
	<path class="st4" d="M184.4,127.5c0.1,0.8-0.7,0.6-1.1,0.8c-0.6,0.3-0.9,0.1-1.1-0.5c-0.3-1.1-0.7-2.1-1-3.1c-0.2-0.5-0.3-1-1-0.8
		c-0.8,0.3-0.4,0.8-0.3,1.2c0.2,0.7,0.4,1.5,0.7,2.2c0.2,0.7,0.3,1.3-0.7,1.6c-1.1,0.4-1.2-0.2-1.4-0.9c-0.2-0.8-0.5-1.6-0.7-2.4
		c-0.2-0.8-0.6-0.8-1.3-0.7c-0.8,0.2-0.6,0.7-0.5,1.2c0.3,1,0.5,2,0.9,2.9c0.4,0.9,0,1.2-0.8,1.5c-1,0.4-1.1-0.2-1.3-0.9
		c-0.6-1.8-1.1-3.7-1.7-5.5c-0.3-0.9-0.2-1.4,0.8-1.6c2.3-0.6,4.6-1.3,6.8-2c0.9-0.3,1.4-0.1,1.7,0.9
		C183.1,123.4,183.8,125.4,184.4,127.5z"/>
	<path class="st4" d="M34.5,110.7c-1.4-0.1-3.2-0.3-5-0.3c-0.8,0-1.1-0.3-1-1.2c0.3-2,0.5-4,0.6-5.9c0.1-0.8,0.4-1.1,1.2-1
		c0.9,0.1,1,0.5,0.9,1.3c-0.1,1-0.2,2-0.3,3.1c-0.1,0.6,0.2,0.8,0.8,0.9c0.6,0.1,0.8-0.3,0.8-0.8c0-0.8,0-1.5,0.1-2.3
		c0-0.7-0.2-1.6,1.2-1.4c1.1,0.1,0.9,0.7,0.8,1.5c-0.1,0.8-0.1,1.5-0.2,2.3c-0.1,0.7,0,1.1,0.9,1.1c0.7,0,1.1-0.1,1.1-0.9
		c0-1.1,0.2-2.2,0.3-3.3c0-0.8,0.4-1,1.1-0.9c0.7,0.1,1,0.3,1,1.1c-0.2,2.1-0.3,4.1-0.5,6.2c-0.1,0.9-0.5,1.1-1.3,1
		C36.4,110.7,35.6,110.7,34.5,110.7z"/>
	<path class="st4" d="M44.7,39.8C44.1,40,44,39.4,43.9,39c-1.1-2.3-2.1-4.7-3.2-7c-0.4-0.9-0.1-1.1,0.6-1.4c1.8-0.8,3.6-1.6,5.4-2.5
		c0.7-0.3,1.1-0.3,1.5,0.5c0.5,0.9,0.1,1.1-0.6,1.4c-0.9,0.4-1.9,0.9-2.8,1.3c-0.5,0.2-1,0.4-0.6,1.1c0.4,0.7,0.8,0.4,1.3,0.2
		c0.8-0.4,1.6-0.8,2.4-1.2c0.5-0.3,1-0.4,1.2,0.3c0.2,0.6,0.4,1.1-0.4,1.4c-0.8,0.4-1.6,0.8-2.4,1.2c-0.6,0.3-1.2,0.4-0.7,1.4
		c0.5,0.9,1,0.8,1.7,0.4c0.8-0.4,1.6-0.8,2.4-1.2c0.7-0.4,1.2-0.6,1.6,0.4c0.4,0.9,0.2,1.3-0.6,1.6C48.7,38,46.8,38.9,44.7,39.8z"/>
	<path class="st4" d="M82,18.6c1-0.3,1.2,0.4,1.6,0.9c1.2,2.1,2.5,4.2,3.7,6.3c0.2,0.4,1.2,1.2,0.2,1.5c-0.8,0.2-1.8,1.2-2.8,0
		c-1.2-1.4-3.4-1.1-4,0.6c-0.5,1.3-1.7,0.9-2.4,0.9c-0.9,0-0.4-1-0.3-1.5c0.4-2.2,1.1-4.4,1.3-6.6C79.4,18.8,80.5,18.5,82,18.6z
		 M83.2,24.3c-0.5-0.9-0.9-1.7-1.4-2.8c-0.4,1.3-0.6,2.2-0.4,3.2C82.1,24.6,82.6,24.4,83.2,24.3z"/>
	<path class="st5" d="M122,27.6c1.7-3.1,3.2-5.9,4.6-8.7c0.5-1,1.3-0.6,2-0.5c0.8,0.1,1.6,0,1.9,1.2c0.6,3,1.3,5.9,1.9,9
		c-1.4,0-2.7,0.4-3.3-1.4c-0.2-0.6-3.2-1-3.5-0.5C124.8,28.3,123.5,27.4,122,27.6z M127.9,21.4c-0.3,1.1-1.2,1.9-0.8,2.9
		c0.2,0.4,1,0.3,1.7,0C128.4,23.4,128.7,22.4,127.9,21.4z"/>
	<path class="st5" d="M28,76.9c-0.3-1,0.3-1.2,0.9-1.5c2.1-1.1,4.3-2.3,6.4-3.4c0.5-0.3,1.3-1.1,1.6-0.5c0.4,0.8,0.7,2-0.1,2.9
		c-1.4,1.7-1.2,2.9,0.7,4.1c0.9,0.6,0.6,1.7,0.5,2.5c-0.1,1.1-1,0.4-1.5,0.3c-2.2-0.5-4.3-1.2-6.5-1.6C28.2,79.3,27.8,78.3,28,76.9z
		 M30.6,77.3c1.1,0.2,1.8,0.3,2.5,0.4c0.3,0,0.8,0.2,0.9-0.3c0.1-0.4,0-0.9-0.2-1.3c-0.3-0.5-0.7,0-1,0.1
		C32.3,76.5,31.6,76.8,30.6,77.3z"/>
	<path class="st4" d="M75.3,22.4c-1,0.7-2,1.7-3.2,0.3c0,0-0.1-0.1-0.2-0.1c-1-0.2-1.8,0.2-2.1,1.2c-0.5,1.4,0.2,3.7,1.2,4.2
		c1.1,0.5,1.8,0,2.4-0.9c0.3-0.5,0.1-1.3,0.9-1.3c0.6,0,1.4,0,1.8,0.3c0.5,0.4,0.1,1.2-0.1,1.8c-0.7,1.7-3.7,3-5.8,2.6
		c-1.9-0.4-3.7-3.1-3.6-5.4c0.1-2.2,1.3-3.9,3.3-4.4C72.6,19.8,73.9,20.2,75.3,22.4z"/>
	<path class="st4" d="M172.3,67.9c0-2.4,1.3-4.2,3.2-4.8c2.4-0.7,5.1,0.2,6.5,2.2c1,1.4,0.6,4.1-0.8,5.7c-0.2,0.2-0.4,0.5-0.7,0.6
		c-0.6,0.4-1.6,1.2-2,0.5c-0.4-0.7-0.7-2,0.6-2.6c0.9-0.4,0.9-1.2,0.8-2c-0.1-0.8-0.6-1.3-1.4-1.4c-0.6-0.1-1.3-0.3-1.9-0.4
		c-1-0.1-1.6,0.4-2,1.2c-0.3,0.8,0,1.4,0.6,1.8c1.6,1.1-0.1,1.8-0.4,2.4c-0.5,0.9-1.1,0-1.5-0.4C172.4,70.1,172.2,69,172.3,67.9z"/>
	<path class="st4" d="M32.3,85.9c-2.4-1-4.4-1.9-3.3-4.9c0.9,0.5,1.9,1,2.8,1.7c1.8,1.3,3.6,2.1,5.9,1.5c0.7-0.2,1.2,0.2,1,0.9
		c-0.1,0.7,0.6,1.8-0.7,2c-1.6,0.2-3.2-0.1-4.6,1.1c-1.2,1.1-2.5,1.9-4,3c-0.4-1.1-0.8-2.4-0.2-3.2C29.8,87.2,31,86.7,32.3,85.9z"/>
	<path class="st6" d="M106.6,16.7c1,0,2.1,0,3.1,0c0.9,0,1.6,0,1.5,1.3c0,1.2-0.6,1.3-1.4,1.2c-1.5-0.2-1.9,0.4-1.8,1.8
		c0.1,1.5,0,3,0,4.4c0.1,1.3-0.7,1.1-1.5,1.1c-0.7,0-1.6,0.3-1.6-1c0.1-1.5,0-3.1,0-4.6c0.1-1.2-0.2-1.9-1.5-1.7
		c-0.9,0.1-1.7,0.2-1.7-1.3c0-1.4,0.9-1.1,1.7-1.1C104.5,16.7,105.5,16.7,106.6,16.7z"/>
	<path class="st4" d="M176,87.1c-0.3,0-0.4,0-0.6,0c-3.2-0.1-3.2-0.1-3.2,3c0,0.9,0,1.6-1.3,1.6c-1.4,0-1.3-0.8-1.3-1.7
		c0.1-1,0.1-1.9,0.1-2.9c0.1-3.1,0.1-3.1,3.4-3.1c1.5,0,3.1,0,4.6,0.1c1.7,0,2.4,1.1,1.8,2.7c-0.2,0.5-0.5,0.5-0.9,0.5
		C177.7,87.2,176.7,87.1,176,87.1z"/>
	<path class="st4" d="M174.6,92.8c1,0,2.1,0,3.1,0c1,0,1.7-0.1,1.7,1.3c0,1.3-0.4,1.7-1.6,1.7c-1.3,0-2.7,0.2-4,0.1
		c-1.4-0.1-1.8,0.5-1.6,1.8c0.1,0.6,0,1.2,0,1.7c0.1,0.8-0.1,1.3-1.1,1.3c-0.9,0-1.3-0.3-1.2-1.2c0-0.5,0-1,0-1.5
		c0-1.6-0.9-3.8,0.2-4.8C170.9,92.4,173,92.9,174.6,92.8z"/>
	<path class="st5" d="M90.6,27.2c-1.3,0.4-1.5-0.3-1.6-1.6c-0.1-2.2-0.4-4.5-0.7-6.7c-0.1-1,0.1-1.4,1.2-1.4c0.9,0,1.8-0.3,1.9,1.2
		c0,1.5,0.3,3.1,0.4,4.6c0,1,0.3,1.4,1.4,1.3c0.8-0.1,1.7,0,2.5-0.1c0.8-0.1,1.1,0.3,1.2,1.1c0.1,0.8-0.2,1.2-1,1.2
		C94.1,26.8,92.5,27,90.6,27.2z"/>
	<path class="st4" d="M155.2,25.5c-0.9,2.8-1.8,5.5-2.8,8.1c-0.5,1.3-1.4,0.2-2.2,0.1c-0.7,0-1-0.4-0.8-1.2c0.9-2.5,1.8-5.1,2.6-7.6
		c0.4-1.1,1.2-0.5,1.7-0.3C154.4,24.7,155.3,24.6,155.2,25.5z"/>
	<path class="st5" d="M66.2,31.4c-0.1,0.8-0.9,0.7-1.4,0.8c-0.5,0.1-1.3,0.7-1.6-0.3c-0.7-2.7-1.5-5.3-2.1-8c-0.3-1,0.8-0.8,1.3-1
		c0.5-0.2,1.3-0.8,1.6,0.1C64.7,25.7,65.4,28.5,66.2,31.4z"/>
	<path class="st4" d="M135,29.6c-1,0.1-1.6-0.2-1.2-1.6c0.6-2.3,0.9-4.6,1.3-7c0.2-0.9,0.5-1.3,1.5-1c0.9,0.2,1.3,0.5,1.1,1.5
		c-0.5,2.4-1,4.8-1.4,7.2C136.2,29.4,136,29.9,135,29.6z"/>
	<path class="st7" d="M106.8,33.7c10,0.2,22.1,2.4,34,6.4c8.2,2.8,16.2,6.2,23.9,10.2c1.4,0.7,1.8,1.2,1.2,2.9
		c-5,15-6.4,30.4-5.5,46.1c0.6,11.1,3.3,22,5.4,32.9c2,10.1,0.7,19.8-4.1,29c-8.5,16.2-22.1,25.7-39.4,30
		c-10.3,2.6-20.9,2.6-31.4,0.4c-14.3-3-26.4-9.8-35.6-21.2c-4.8-5.9-7.3-13.1-9-20.5c-2.3-9.5-2.1-18.9-0.3-28.5
		c2.2-12,2.4-24.1,1.3-36.2c-1-10.7-2.9-21.3-5.8-31.6c-0.4-1.3,0.2-1.7,1.1-2.3C52.5,44.5,63.6,40,75.5,37.2
		C85,35,94.5,33.8,106.8,33.7z M65.9,121.5c-3.3,2.5-6.5,5.2-8,9.8c-0.4-5.2,0.4-10-0.6-14.7c-5,3-3.9,14.4-0.5,19.4
		c1.3-2.6,3.6-4.4,5.4-6.5C64.2,127.2,65.7,124.7,65.9,121.5c0-0.1,0.1-0.1,0.2-0.2c0,0-0.1,0-0.1,0
		C65.9,121.4,65.9,121.5,65.9,121.5z M67.4,154c-0.1-0.1-0.1-0.2-0.2-0.2c-0.2,0.2-0.1,0.3,0.1,0.4c0.2,4,0.4,8,2.1,11.8
		c-0.1,0.1-0.2,0.2-0.3,0.4c-4.4-3.6-9.7-6-13.9-9.9c0.5,2.6,1.3,5.1,3,7.2c2.7,3.4,6.6,4.6,10.5,5.8c1.7,0.5,3.5,1.2,5.6,1.2
		c-1-2.5-0.9-5.1-1.4-7.5C72,159.6,71,156,67.4,154z M144.8,166.4c-0.1-0.1-0.2-0.2-0.3-0.2c2.1-3.9,1.9-8.2,2.5-12.7
		c-6,4.5-5.7,11-7,17.3c3.9-0.9,7.5-1.9,10.9-3.4c4.7-2.1,7.1-6,8-11C154.7,160.4,149.1,162.6,144.8,166.4z M101.4,51.5
		c0,2.4,0.1,4.8,0.1,7.3c-2.6,2.9-5.8,5.4-7,9.3c-3.8,0-7.6,0-11.4,0c-2,0-4.8-0.9-5.9,0.4c-1,1.3-0.2,3.9-0.4,6
		c-0.1,1.2,0.3,1.5,1.5,1.5c6-0.1,11.9-0.1,17.9-0.1c1.4,1.6,2.7,3.4,5,3.8c0,2.4,0.1,4.7,0.1,7.1c-3.4,2.9-6.6,5.9-8.1,10.3
		c-2.3,7,0.6,13,7.9,14.6c0,2.2,0.1,4.4,0.1,6.5c-0.8,0.8-1.3,1.7-1.3,2.8c-0.4,0-0.8,0-1.2,0c-4.7-1-9.2,0.1-13.6,1.2
		c-1.7,0.4-3.6,1-4.6,2.6c-3.6,5.5-7.1,11.1-10.7,16.7c-0.3,0.4-0.8,1.2,0.1,1.4c1.5,0.3,0.7,1,0.3,1.6c-0.4,0.7-0.8,1.3-1.2,2
		c-0.3,0.7-1.1,1.3-0.6,2.1c0.4,0.6,1.3,0.3,2,0.2c5.4-0.5,10.7-1.7,16.1-2.5c4.3-0.7,8.8-1.1,12.9,0.5c3.3,1.3,6.4,2,9.6,0
		c0.3-0.2,0.6-0.2,0.9-0.3c5.8-1.7,11.6-0.2,17.3,0.6c3.5,0.5,7.1,1.2,10.6,1.7c0.7,0.1,1.5,0.3,2-0.3c0.5-0.7,0-1.3-0.4-1.9
		c-0.5-0.8-1-1.6-1.5-2.5c-0.2-0.3-0.8-0.8,0-1c1.6-0.5,0.8-1.2,0.3-2c-2.8-4.7-5.9-9.2-8.5-14c-2-3.8-5.3-5.1-9-6.1
		c-3.6-0.9-7.1-0.7-10.7-0.4c0.7-0.5,1.5-1,2.1-1.6c2.7-2.2,4.2-6.5,0.9-9.5c-1.2-1.1-2.7-1.9-4.3-2.4c0-5.4,0-10.9-0.1-16.3
		c0.6-0.8,1.6-1,2.5-1.4c2.4-1.2,3.4-2.9,3-5.6c-0.4-3.4-2.1-6-4.9-7.9c7.4,0,14.8-0.1,22.2,0c1.3,0,1.8-0.3,1.7-1.7
		c-0.1-1.5-0.1-3,0-4.4c0.1-1.5-0.5-1.8-1.8-1.8c-7,0.1-14,0-21.1,0.1c-1.3,0-1.7-0.3-1.7-1.6c0.1-2.4,0-4.8,0-7.1
		c1.3-1,2.5-2,3.9-2.9c1.8-1.2,2.2-2.9,1.7-4.7c-0.8-2.7-2.4-4.9-5.5-5.6c0-2.7,0-5.4,0-8.1c0-1.1-0.3-1.6-1.5-1.5
		c-1.7,0.1-3.3,0.1-5,0c-1.3-0.1-1.5,0.5-1.5,1.6c0.1,2.4,0,4.9,0,7.3c-4.9,0.8-7.6,3.6-8.3,8.3c-0.2,1.5,0.2,1.9,1.7,1.4
		C97.2,54.4,99.2,52.8,101.4,51.5z M142.1,178.8c-0.3,0-0.5-0.1-0.8,0c-4.6,1.4-9.2,1.1-13.6-0.7c-6.3-2.5-12.5-2.5-18.9-0.7
		c-1,0.3-2,0.3-3,0c-6.1-1.7-12.2-1.9-18.2,0.5c-4.2,1.7-8.6,2.1-13.1,1.4c-0.6-0.1-1.3-0.3-2,0.1c3,2.2,6.2,3.4,9.7,3.8
		c4,0.4,7.6-0.8,11.2-2.3c2.7-1.1,5.6-1.5,8.6-1.2c-3.5,1.8-6.5,4.1-9.4,7c2.3,0.7,3.8-0.2,5.2-1.7c5.5-5.6,10-6.1,16.3-2.2
		c1.2,0.7,2.2,1.6,3,2.7c1.3,1.6,2.8,1.6,4.8,1.2c-2.9-2.9-6-5.3-9.5-7c3.1-0.2,5.9,0.2,8.7,1.3c2.7,1,5.3,2.2,8.3,2.3
		C134.3,183.3,138.6,182.2,142.1,178.8c0-0.1,0.4,0,0.1-0.3C142.1,178.6,142.1,178.7,142.1,178.8z M63.3,169.9
		c2.5,5.7,12.5,10.3,23.1,5.5c-4.2-4.5-5.9-11.1-12.4-14.2c1.2,4.8,3.3,8.7,6.7,12.3C74.3,174.1,69.1,170.5,63.3,169.9z
		 M140.1,161.3c-3.4,1.2-4.9,4-6.7,6.5c-1.8,2.5-3,5.5-5.1,7.6c3.9,2,8.1,2.4,12.3,1.6c4.4-0.8,7.9-3.1,10.5-7.2
		c-0.8,0.2-1.3,0.3-1.7,0.3c-4.1,0.9-8.1,2.6-12.3,3.4c-1,0.2-1.9,0.3-2.9-0.3C136.7,169.6,139,165.9,140.1,161.3z M157.6,136.1
		c3.9-7.9,3.5-17.4-0.8-19.4c-0.9,4.7-0.1,9.4-0.6,14.6c-1.5-4.8-5-7.3-8.4-10.3C148.6,127.9,154.4,131,157.6,136.1z M151,141.7
		c-1.6,1.7-2.3,3.4-2.4,5.4c-0.3,4,1.3,7.8,1.4,11.8c8-4,13.2-8.3,12.1-15.1c-3.4,4-7.2,7.3-10.4,11.8
		C152.2,150.8,151.5,146.4,151,141.7z M52.1,143.8c-0.1,0.5-0.2,0.7-0.2,0.8c-0.3,6.9,5.4,11,12.4,14.2c-0.3-2.4,0.5-4.6,0.9-6.9
		c0.6-3.5,1-7.1-2-10.3c-0.6,4.6-1.2,8.9-0.7,13.8C59.2,151.1,55.5,147.7,52.1,143.8z M155.9,143.2c-0.3-4.5-2-7.9-4.8-10.6
		c-1.7,5.7,3.4,9.6,3.6,15c2.3-2.6,4.4-4.9,6.4-7.2c2.3-2.7,3.4-5.8,2.4-9.5C160.1,134.4,158.1,138.5,155.9,143.2z M63.1,132.3
		c-1.2,1.8-2.6,3.1-3.4,4.8c-0.8,1.7-1.4,3.5-1.6,6c-1.9-4.8-4.3-8.6-7.6-12.2c-0.3,2.1-0.5,3.9,0.2,5.6c1.8,4.5,5.6,7.3,8.6,11.4
		c0.3-2.9,1.2-4.9,2.4-6.9C63.1,138.4,63.6,135.6,63.1,132.3z M149.1,108.5c-0.5,6,0.7,10.8,5,15.1
		C154.5,117.7,154.3,112.5,149.1,108.5z M60.1,123.1c3.6-2,6.1-10,4.6-14.3C59.9,112.5,59.7,117.6,60.1,123.1z"/>
	<path class="st8" d="M64.6,205.8c0.8,0,0.9-0.8,1.2-1.3c0.3-0.4,0.6-0.7,1.1-0.5c0.7,0.2,0.6,0.7,0.5,1.3c-0.3,1.1-0.6,2.2-1,3.3
		c-0.1,0.4,0,1.1-0.6,1c-0.9-0.1-0.3-0.8-0.3-1.2c0-0.2,0.1-0.4-0.2-0.5c-0.7,0.1-0.6,1.6-1.5,1c-1-0.6,0.1-1.8-0.4-2.7
		c-0.5,0.5-0.5,1.2-0.7,1.8c-0.1,0.3-0.3,0.6-0.7,0.5c-0.4-0.1-0.3-0.5-0.2-0.8c0.4-1.2,0.8-2.4,1.2-3.6c0.2-0.6,0.3-1.1,1.2-0.8
		c0.7,0.2,0.6,0.8,0.4,1.3C64.4,204.9,64.1,205.3,64.6,205.8z"/>
	<path class="st8" d="M121,214.3c-0.6,0.8,0.4,2.2-0.6,2.3c-1.3,0-0.5-1.4-0.7-2.1c-0.1-0.5-0.1-1,0-1.5c0.1-0.7-0.5-1.7,0.6-2
		c0.9-0.2,2-0.3,2.7,0.4c0.7,0.7,0.8,1.6-0.1,2.3c-0.6,0.5,0,0.7,0.2,1.1c0.2,0.5,1.2,1.1,0.6,1.5c-0.8,0.5-1-0.6-1.4-1.1
		C121.8,214.9,121.6,214.4,121,214.3z"/>
	<path class="st8" d="M135,212.3c-0.2,0.3-0.3,0.3-0.3,0.3c-0.4,0.7,0.6,2.2-0.2,2.2c-1,0-0.7-1.5-1-2.3c-0.2-0.5-0.3-1-0.3-1.5
		c0-0.6-0.7-1.4,0.2-1.7c0.8-0.3,1.7-0.8,2.6-0.1c0.6,0.5,0.8,1.4,0.5,1.9c-0.6,0.9-0.1,1.4,0.4,2.1c0.2,0.3,0.9,0.6,0.2,1.1
		c-0.4,0.3-0.8,0-1.1-0.4C135.7,213.4,135.4,212.9,135,212.3z"/>
	<path class="st8" d="M74.1,209.5c0.6-0.8,0.5-1.7,0.8-2.5c0.1-0.3,0.1-0.7,0.6-0.6c0.4,0.1,0.5,0.4,0.4,0.8
		c-0.3,1.4-0.7,2.9-1.1,4.3c-0.1,0.3-0.2,0.6-0.6,0.6c-0.4,0-0.6-0.3-0.6-0.6c-0.2-0.8-0.4-1.6-0.6-2.5c-0.8,0.4-0.5,1.3-0.9,1.8
		c-0.2,0.3-0.1,0.7-0.6,0.6c-0.4-0.1-0.5-0.4-0.4-0.7c0.3-1.4,0.7-2.9,1-4.3c0.1-0.3,0.2-0.6,0.7-0.5c0.4,0.1,0.5,0.4,0.6,0.7
		C73.7,207.4,73.9,208.4,74.1,209.5z"/>
	<path class="st8" d="M106.3,214.5c0.3-1.4,0-2.5,0.5-3.4c0.2,0,0.4,0,0.5,0c0,1.7,0.1,3.4-0.1,5.1c-0.1,0.8-0.9,0.6-1.2,0
		c-0.4-0.8-0.8-1.6-1.3-2.8c-0.1,1.2-0.1,1.9-0.2,2.6c0,0.3-0.2,0.6-0.5,0.7c-0.4,0-0.5-0.3-0.5-0.7c0.1-1.4,0.1-2.8,0.2-4.2
		c0-0.3,0-0.7,0.5-0.7c0.4,0,0.6,0.2,0.7,0.5C105.3,212.4,105.7,213.3,106.3,214.5z"/>
	<path class="st8" d="M90.7,215.6c0.2-2,0.4-3.5,0.6-5.1c0-0.4,0-0.8,0.6-0.8c0.5,0,0.6,0.4,0.7,0.8c0.3,0.8,0.5,1.6,0.8,2.4
		c1-0.6,0.3-2,1.3-2.8c0.4,1.8-0.2,3.4-0.3,5.1c0,0.3-0.1,0.5-0.4,0.5c-0.3,0-0.6-0.2-0.7-0.5c-0.3-0.9-0.6-1.7-1-2.7
		C91.4,213.3,92.1,214.6,90.7,215.6z"/>
	<path class="st8" d="M160.1,205.9c-0.1,1.5-0.7,2.5-2.3,2.6c-1.3,0.1-2.7-1.8-2.7-3.7c0-1.5,1-2,2.3-2.1
		C158.8,202.6,160.1,204.2,160.1,205.9z M156.3,205.2c0.2,1,0.4,2.1,1.8,2.1c0.8,0,1-0.6,0.9-1.2c-0.3-1-0.1-2.4-1.6-2.5
		C156.5,203.7,156.2,204.4,156.3,205.2z"/>
	<path class="st8" d="M99.5,215.6c0,0.3,0,0.6-0.3,0.7c-0.3,0.1-0.7,0-0.8-0.3c-0.6-1.7-1.4-1.7-2.4-0.3c-0.2,0.3-0.5,0.4-0.8,0.3
		c-0.4-0.2-0.2-0.5-0.1-0.8c0.6-1.4,1.1-2.8,1.7-4.1c0.4-0.8,1.2-1,1.5,0C98.8,212.5,99.1,214.1,99.5,215.6z"/>
	<path class="st8" d="M132.9,213.2c-0.1,1.2-0.5,2.3-2.2,2.4c-1.4,0.1-2.5-1.4-2.5-3.3c0-1.3,0.6-2.4,2.1-2.6
		C131.6,209.6,132.9,211.3,132.9,213.2z M131.7,212.8c-0.2-0.6,0.2-1.9-1.2-2c-1.1-0.1-1.1,0.8-1.1,1.6c0,1,0.2,2.1,1.4,2.1
		C131.6,214.6,131.8,213.8,131.7,212.8z"/>
	<path class="st8" d="M147.9,208.9c0.4-1-0.6-2.7,0.8-3c1.1-0.3,1.3,1.4,2,2.2c0.3,0.4,0.6,0.8,0.9,1.3c0.2,0.4,0.9,0.8,0.4,1.3
		c-0.5,0.5-0.6-0.4-1-0.6c-0.8-0.4-1.6-0.3-1.9,0.6c-0.2,0.5-0.2,1.1-0.9,0.9c-0.6-0.2-0.3-0.7-0.3-1.1
		C147.8,209.9,147.9,209.4,147.9,208.9z"/>
	<path class="st8" d="M83.2,211.4c-0.5-0.7-1.2-1.2-0.7-2.2c0.3-0.6,0.9-1,1.6-0.9c0.7,0.1,1.2,0.3,1.5,1c0.1,0.3,0.3,0.6,0,0.9
		c-0.2,0.2-0.6,0.1-0.7-0.1c-0.3-0.6-0.9-1.1-1.3-0.5c-0.4,0.6,0.5,1,1,1.3c1,0.6,1.2,1.5,0.6,2.4c-0.6,1-1.6,0.9-2.6,0.5
		c-0.6-0.2-0.8-0.8-0.8-1.4c0-0.6,0.4-0.7,0.9-0.7c0,0.7,0.2,1.3,1,1.3c0.2,0,0.5-0.2,0.6-0.4C84.6,211.7,83.7,211.7,83.2,211.4z"/>
	<path class="st8" d="M125.7,210.4c1.1-0.1,1.8,0.4,2,1.5c0.2,1-0.1,1.9-1.2,2c-1.2,0.1-1.3,0.8-1.1,1.7c0,0.3,0.1,0.7-0.4,0.7
		c-0.4,0-0.5-0.3-0.5-0.6c-0.1-1.5-0.3-2.9-0.3-4.4C124.1,210,125.2,210.6,125.7,210.4z"/>
	<path class="st8" d="M116.4,211c1.8,0,2.8,1.3,2.7,3c-0.1,1.4-0.5,2.7-2.2,2.9c-1.4,0.1-2.3-1.2-2.2-3.2
		C114.6,212.2,115.1,211,116.4,211z M118.1,213.8c-0.3-0.6-0.1-1.7-1.3-1.7c-1,0-1.5,0.8-1.4,1.7c0.1,0.9,0.2,2,1.3,2
		C117.9,215.7,117.9,214.7,118.1,213.8z"/>
	<path class="st8" d="M90,215c-0.8,0-0.9-0.4-1-0.7c-0.4-0.9-1.2-0.8-1.9-0.6c-0.5,0.2-0.5,1.4-1.2,0.8c-0.6-0.5,0.2-1.1,0.5-1.6
		c0.4-1,1-1.9,1.4-2.9c0.2-0.4,0.3-0.9,0.9-0.7c0.4,0.1,0.6,0.5,0.6,0.9C89.6,211.6,89.8,213.3,90,215z"/>
	<path class="st8" d="M140.2,212.8c0.4,0.1,1.3-0.5,1.3,0.4c0,0.6-0.8,0.4-1.2,0.6c-1.5,0.5-2.7,0.4-2.6-1.6c0-0.5-0.2-1-0.3-1.5
		c-0.4-2.1,0.1-2.7,2.4-2.7c0.4,0,0.7,0,0.7,0.4c0.1,0.4-0.3,0.5-0.6,0.6c-0.3,0.1-0.6,0.2-0.9,0.3c-0.4,0.1-0.8,0.1-0.7,0.7
		c0.1,0.7,0.6,0.5,1,0.5c0.5,0,1.1-0.6,1.3,0.1c0.2,0.9-0.7,0.6-1.2,0.8c-0.4,0.2-0.9,0.2-0.8,0.9
		C138.8,213.2,139.6,212.8,140.2,212.8z"/>
	<path class="st8" d="M143.7,211.1c0.2-0.1,0.2-0.2,0.3-0.2c0.7,0,1.7,1.2,2,0c0.3-1.3-1.1-0.7-1.8-0.9c-0.9-0.4-1.3-1-1.2-1.9
		c0.2-1,1-1.3,1.9-1.3c0.6,0,1.5,0.4,1.3,1.1c-0.2,0.8-0.8,0.1-1.2,0c-0.4-0.1-0.8-0.2-1,0.3c-0.1,0.5,0.4,0.6,0.8,0.6
		c0.3,0,0.5,0.1,0.8,0.1c1.4,0.1,1.7,1.2,1.7,2.2c0.1,0.9-0.7,1.2-1.5,1.4C144.6,212.8,144.1,212.1,143.7,211.1z"/>
	<path class="st8" d="M79.7,208.9c-0.2,0-0.4,0-0.5,0c-0.4-0.4-0.8-1.4-1.4-0.8c-0.7,0.7,0.4,1,0.8,1.3c1.1,0.7,1.2,1.6,0.6,2.6
		c-0.6,0.9-1.4,1-2.4,0.5c-0.8-0.4-1.4-1.2-0.9-1.8c0.7-0.8,0.7,0.4,1.1,0.7c0.4,0.3,0.9,0.4,1.2,0c0.4-0.5,0-0.8-0.4-1.1
		c-0.3-0.2-0.5-0.4-0.8-0.6c-0.7-0.6-0.9-1.3-0.4-2c0.5-0.8,1.2-0.9,2-0.7C79.6,207.3,80,208,79.7,208.9z"/>
	<path class="st8" d="M69.5,210.6c-2.6-0.4-2.7-0.5-2-2.9c0.1-0.4,0.2-0.7,0.3-1.1c0.6-2.1,1.3-2.4,3.2-1.4c0.3,0.2,0.6,0.3,0.5,0.7
		c-0.1,0.4-0.5,0.4-0.8,0.3c-0.2-0.1-0.5-0.2-0.7-0.2c-0.4,0-0.9-0.4-1.1,0.3c-0.1,0.5,0.3,0.6,0.7,0.8c0.5,0.2,1.4,0.1,1.2,0.9
		c-0.3,0.8-1,0.2-1.5,0c-0.7-0.2-0.9,0.2-1.1,0.7c-0.2,0.7,0.3,0.7,0.7,0.8c0.2,0.1,0.5,0.2,0.7,0.2c0.4,0.1,0.8,0.1,0.7,0.7
		C70.3,210.9,69.9,210.7,69.5,210.6z"/>
	<path class="st8" d="M150,204.9c2.3,0.2,2.3,2.2,3.7,3c-0.1-1.2-0.2-2.2-0.3-3.2c0-0.4,0.1-0.8,0.6-0.8c0.6-0.1,0.6,0.4,0.6,0.8
		c0.1,1.4,0.1,2.8,0.2,4.2c0,0.5-0.2,0.8-0.6,1.1c-0.6,0.3-0.8-0.2-1-0.5C152.1,208,151.1,206.7,150,204.9z"/>
	<path class="st8" d="M109.8,214c0.1-1,0.2-2.1,1.2-2.6c0.6-0.4,1.3-0.4,2,0.1c0.4,0.3,0.9,0.8,0.7,1.2c-0.3,0.5-0.7,0.1-1.1-0.2
		c-0.5-0.3-1-0.4-1.3,0.2c-0.4,1-0.6,2,0.1,2.9c0.4,0.5,1,0.6,1.4-0.1c0.2-0.3,0.5-0.5,0.8-0.3c0.4,0.3,0.1,0.7-0.1,1
		c-0.5,0.8-1.3,1.1-2.2,0.8C110.1,216.4,109.9,215.2,109.8,214z"/>
	<path class="st5" d="M102.7,213.5c-0.3,0.9,0.3,2.7-0.5,2.7c-1-0.1-0.4-1.7-0.4-2.6c0-0.9-0.3-2.5,0.4-2.5
		C103.3,211.2,102.4,212.6,102.7,213.5z"/>
	<path class="st0" d="M32.9,40.8c0-0.1-0.1-0.3-0.1-0.4c0.2,0,0.3,0,0.5,0C33.1,40.6,33,40.7,32.9,40.8z"/>
	<path class="st3" d="M57.6,30.9c0,1.1-0.9,1.4-1.7,1.7c-0.8,0.3-0.8-0.6-0.9-1.1c-0.3-0.7-0.5-1.4-0.8-2.2
		c-0.2-0.6-0.9-1.3,0.1-1.8c0.9-0.4,1.8-0.3,2.4,0.6C57.2,29,57.3,29.9,57.6,30.9z"/>
	<path class="st9" d="M117.1,21.2c-0.8,0.1-1.3-0.1-1.3-1.1c0-0.7,0.2-1.1,1-1c0.7,0.1,1.7,0.1,1.8,1.1
		C118.7,21.1,117.9,21.2,117.1,21.2z"/>
	<path class="st3" d="M176.2,79.9c-1.9-0.1-3.3-0.3-3.4-2.1c-0.1-1.7,1.2-2,2.6-2c1.4,0,2.6,0.4,2.7,2.1
		C178.2,79.4,177.3,80,176.2,79.9z"/>
	<path class="st3" d="M83.2,24.3c-0.6,0.2-1.2,0.3-1.8,0.4c-0.3-1,0-1.9,0.4-3.2C82.4,22.6,82.8,23.4,83.2,24.3z"/>
	<path class="st3" d="M127.9,21.4c0.8,1,0.4,2,0.9,2.8c-0.6,0.4-1.5,0.4-1.7,0C126.8,23.3,127.7,22.5,127.9,21.4z"/>
	<path class="st9" d="M30.6,77.3c1-0.5,1.6-0.8,2.2-1.1c0.3-0.1,0.7-0.6,1-0.1c0.2,0.4,0.3,0.9,0.2,1.3c-0.1,0.5-0.6,0.3-0.9,0.3
		C32.4,77.6,31.7,77.5,30.6,77.3z"/>
	<path class="st10" d="M101.5,86.9c0-2.4-0.1-4.7-0.1-7.1c0-3.7,0.2-7.4,0-11.1c-0.1-2.2,0.8-3.9,2.4-5.2c1.8-1.4,3.7-2.7,5.5-4.1
		c0,2.4,0.1,4.8,0,7.1c0,1.3,0.4,1.6,1.7,1.6c7-0.1,14,0,21.1-0.1c1.4,0,2,0.3,1.8,1.8c-0.1,1.5-0.1,3,0,4.4
		c0.1,1.4-0.4,1.7-1.7,1.7c-7.4,0-14.8,0-22.2,0c-1.4,0.2-0.7,1.3-0.7,1.9c0.1,2.1-0.1,4.1-1.8,5.5
		C105.6,84.9,103.5,85.8,101.5,86.9z"/>
	<path class="st11" d="M110.6,120.7c3.6-0.3,7.1-0.5,10.7,0.4c3.8,1,7,2.4,9,6.1c2.6,4.8,5.6,9.3,8.5,14c0.5,0.8,1.2,1.5-0.3,2
		c-0.8,0.2-0.2,0.7,0,1c0.5,0.8,1,1.6,1.5,2.5c0.3,0.6,0.9,1.3,0.4,1.9c-0.5,0.6-1.4,0.4-2,0.3c-3.5-0.5-7.1-1.2-10.6-1.7
		c-5.7-0.8-11.5-2.3-17.3-0.6c-0.3,0.1-0.7,0.1-0.9,0.3c-3.2,2-6.3,1.3-9.6,0c-4.1-1.6-8.6-1.2-12.9-0.5c-5.4,0.9-10.7,2.1-16.1,2.5
		c-0.7,0.1-1.6,0.3-2-0.2c-0.6-0.7,0.3-1.4,0.6-2.1c0.3-0.7,0.8-1.3,1.2-2c0.4-0.6,1.2-1.2-0.3-1.6c-0.9-0.2-0.4-1-0.1-1.4
		c3.5-5.6,7-11.2,10.7-16.7c1-1.6,2.9-2.1,4.6-2.6c4.5-1.2,9-2.2,13.6-1.2c0.4,0.1,0.8,0,1.2,0c0.3,1.5,1.6,0.4,2.4,0.8
		c1.3,0.8,2.7,1.1,4,0C108.1,122.1,109.4,121.5,110.6,120.7z M137.8,141.9c-3.4-5.6-6.6-10.9-9.8-16.2c-0.3-0.5-0.7-0.7-1.2-1
		c-6.5-3.8-13.3-4-20.2-1.3c-0.9,0.3-1.1,0.8-1.1,1.7c0,5,0,9.9,0,14.9c0,1.5,0.5,1.4,1.6,0.9c3.2-1.4,6.5-2,10-1.9
		c4.7,0.2,9.3,1,13.9,2C133.1,141.5,135.3,142.1,137.8,141.9z M71.3,141.9c3.5,0.2,6.4-0.7,9.3-1.2c5.9-1.1,11.9-2.3,18-1
		c1.9,0.4,3.6,1.2,5.5,1.8c0-5.6,0-11,0-16.4c0-1.1-0.6-1.4-1.4-1.7c-6.2-2.2-12.3-1.4-18.3,0.7c-1.8,0.6-3,1.7-4,3.3
		C77.6,132.2,74.5,136.8,71.3,141.9z M70.3,147.5c3.2,0.3,5.9-0.5,8.7-1c6.1-1,12.3-2.4,18.6-1.4c2.3,0.4,4.3,1.3,6.6,2
		c0-0.8-0.1-1.4,0-1.9c0.4-1.9-0.6-2.8-2.2-3.3c-3.6-1.2-7.2-2.1-11-1.5c-5.7,0.8-11.4,1.8-17.1,2.7c-0.6,0.1-1.1,0.3-1.4,0.8
		C71.8,145,71.1,146.1,70.3,147.5z M138.6,147.5c-1.1-3.2-1.9-4.2-3.6-4.5c-4.6-0.8-9.3-1.5-13.9-2.3c-4.9-0.9-9.7-0.5-14.3,1.6
		c-0.6,0.3-1.3,0.5-1.3,1.4c0,1.1,0,2.2,0,3.5c4.3-2.1,8.5-2.8,12.9-2.5c4,0.3,8,1,12,1.7C133.1,147,135.8,147.9,138.6,147.5z"/>
	<path class="st12" d="M142,178.8c-3.5,3.4-7.8,4.5-12.5,4.4c-3-0.1-5.6-1.3-8.3-2.3c-2.8-1.1-5.7-1.5-8.7-1.3
		c3.5,1.8,6.5,4.1,9.5,7c-2,0.4-3.5,0.4-4.8-1.2c-0.8-1.1-1.9-1.9-3-2.7c-6.3-3.9-10.8-3.4-16.3,2.2c-1.5,1.5-2.9,2.4-5.2,1.7
		c2.8-2.9,5.8-5.2,9.4-7c-3-0.3-5.8,0.1-8.6,1.2c-3.6,1.4-7.2,2.7-11.2,2.3c-3.5-0.4-6.7-1.6-9.7-3.8c0.7-0.4,1.4-0.2,2-0.1
		c4.5,0.7,8.8,0.3,13.1-1.4c6-2.4,12.1-2.2,18.2-0.5c1,0.3,2,0.3,3,0c6.4-1.8,12.6-1.7,18.9,0.7c4.4,1.7,9,2,13.6,0.7
		C141.5,178.7,141.8,178.8,142,178.8L142,178.8z"/>
	<path class="st1" d="M101.5,86.9c2-1,4.1-2,5.9-3.4c1.8-1.4,2-3.4,1.8-5.5c0-0.6-0.7-1.7,0.7-1.9c2.8,1.9,4.5,4.5,4.9,7.9
		c0.3,2.7-0.6,4.4-3,5.6c-0.9,0.4-1.8,0.6-2.5,1.4c-3.2,1-5.8,2.9-7.9,5.5c-1.3,1.1-1.5,2.7-1.8,4.3c-0.4,1.7,0,3.2,1.8,3.9
		c0,2.4,0,4.8,0,7.2c-7.3-1.6-10.3-7.7-7.9-14.6C94.9,92.7,98.1,89.7,101.5,86.9z"/>
	<path class="st1" d="M109.3,59.4c-1.9,1.4-3.8,2.7-5.5,4.1c-1.6,1.3-2.5,2.9-2.4,5.2c0.1,3.7,0,7.4,0,11.1c-2.3-0.4-3.6-2.2-5-3.8
		c-1.5-2.4-2.1-5-1.8-7.8c1.2-3.9,4.4-6.4,7-9.3c0.9-0.7,1.9-1.4,2.8-2c3.4-2.3,5.9-5.1,5-9.7c-0.1-0.3,0.1-0.6,0.1-0.9
		c3,0.7,4.6,2.9,5.5,5.6c0.6,1.8,0.1,3.5-1.7,4.7C111.8,57.4,110.6,58.4,109.3,59.4z"/>
	<path class="st10" d="M101.4,111.8c0-2.4,0-4.8,0-7.2c0-2.7,0-5.5,0-8.2c2.1-2.7,4.7-4.5,7.9-5.5c0,5.4,0,10.9,0.1,16.3
		c0,2.1-0.2,4.2-0.1,6.3c0.1,1.6-0.6,2.4-2,2.7c-2,0.5-3.9,1.1-5.7,2.1C101.4,116.2,101.4,114,101.4,111.8z"/>
	<path class="st13" d="M109.4,46.2c0,0.3-0.2,0.6-0.1,0.9c1,4.6-1.5,7.4-5,9.7c-1,0.6-1.9,1.3-2.8,2c0-2.4-0.1-4.8-0.1-7.3
		c0-2,0-4.1,0-6.1c0-2.4,0.1-4.9,0-7.3c0-1.1,0.2-1.6,1.5-1.6c1.7,0.1,3.3,0.1,5,0c1.2-0.1,1.5,0.4,1.5,1.5
		C109.3,40.8,109.4,43.5,109.4,46.2z"/>
	<path class="st10" d="M94.5,68.1c-0.3,2.8,0.3,5.4,1.8,7.8c-6,0-11.9,0-17.9,0.1c-1.2,0-1.6-0.3-1.5-1.5c0.1-2-0.7-4.7,0.4-6
		c1.1-1.3,3.8-0.4,5.9-0.4C87,68,90.7,68.1,94.5,68.1z"/>
	<path class="st12" d="M144.8,166.4c4.3-3.9,9.9-6,14.1-10c-0.9,5-3.3,8.9-8,11c-3.4,1.5-7,2.5-10.9,3.4c1.2-6.3,1-12.8,7-17.3
		c-0.6,4.5-0.4,8.8-2.5,12.7c0,0.2,0,0.3-0.1,0.5C144.6,166.6,144.7,166.5,144.8,166.4z"/>
	<path class="st12" d="M63.3,169.9c5.8,0.7,10.9,4.2,17.4,3.6c-3.4-3.6-5.4-7.5-6.7-12.3c6.5,3,8.2,9.7,12.4,14.2
		C75.8,180.1,65.8,175.5,63.3,169.9z"/>
	<path class="st12" d="M67.4,154c3.6,2,4.5,5.6,5.4,9.1c0.6,2.4,0.4,5,1.4,7.5c-2.1,0-3.8-0.7-5.6-1.2c-3.9-1.2-7.7-2.4-10.5-5.8
		c-1.7-2.1-2.5-4.6-3-7.2c4.3,3.9,9.5,6.2,13.9,9.9c0.2,0.1,0.2,0.5,0.5,0.3c0.2-0.2,0.1-0.5-0.2-0.6c-1.7-3.8-1.9-7.8-2.1-11.8
		L67.4,154z"/>
	<path class="st12" d="M140.1,161.3c-1.1,4.6-3.4,8.3-5.8,12c1,0.6,1.9,0.4,2.9,0.3c4.2-0.8,8.1-2.5,12.3-3.4
		c0.4-0.1,0.9-0.2,1.7-0.3c-2.6,4.1-6,6.4-10.5,7.2c-4.3,0.8-8.5,0.4-12.3-1.6c2.1-2.1,3.2-5.1,5.1-7.6
		C135.1,165.3,136.6,162.5,140.1,161.3z"/>
	<path class="st1" d="M101.5,118.3c1.8-1,3.8-1.6,5.7-2.1c1.4-0.4,2.1-1.1,2-2.7c-0.1-2.1,0.1-4.2,0.1-6.3c1.6,0.5,3.1,1.3,4.3,2.4
		c3.3,3,1.8,7.3-0.9,9.5c-0.7,0.6-1.4,1.1-2.1,1.6c-1.2,0.8-2.5,1.4-4,1.3c-1.3,0-2.7,0-4,0c-0.7-0.4-2,0.7-2.4-0.8
		C100.2,120,100.7,119.1,101.5,118.3z"/>
	<path class="st12" d="M157.6,136.1c-3.2-5.1-9-8.2-9.8-15.1c3.5,3,6.9,5.5,8.4,10.3c0.4-5.2-0.3-9.9,0.6-14.6
		C161.1,118.7,161.5,128.2,157.6,136.1z"/>
	<path class="st12" d="M151,141.7c0.5,4.7,1.3,9,0.6,14c3.2-4.5,7-7.9,10.4-11.8c1.1,6.8-4,11.1-12.1,15.1c-0.1-4-1.6-7.8-1.4-11.8
		C148.7,145.2,149.4,143.5,151,141.7z"/>
	<path class="st12" d="M65.9,121.5c-0.1,3.2-1.6,5.7-3.7,8c-1.9,2.1-4.1,3.9-5.4,6.5c-3.3-5-4.5-16.4,0.5-19.4
		c0.9,4.8,0.2,9.5,0.6,14.7C59.4,126.8,62.5,124.1,65.9,121.5L65.9,121.5z"/>
	<path class="st12" d="M52.1,143.8c3.4,3.9,7.1,7.2,10.4,11.7c-0.5-4.9,0.1-9.2,0.7-13.8c3,3.2,2.6,6.7,2,10.3
		c-0.4,2.3-1.2,4.5-0.9,6.9c-7-3.2-12.8-7.3-12.4-14.2C51.9,144.5,52,144.3,52.1,143.8z"/>
	<path class="st12" d="M155.9,143.2c2.2-4.7,4.2-8.9,7.6-12.3c1,3.8-0.1,6.8-2.4,9.5c-2,2.3-4.1,4.6-6.4,7.2
		c-0.3-5.4-5.3-9.3-3.6-15C154,135.4,155.6,138.7,155.9,143.2z"/>
	<path class="st12" d="M63.1,132.3c0.5,3.3,0.1,6.1-1.5,8.7c-1.2,1.9-2,4-2.4,6.9c-2.9-4.1-6.8-6.9-8.6-11.4
		c-0.7-1.7-0.4-3.5-0.2-5.6c3.2,3.6,5.6,7.4,7.6,12.2c0.2-2.4,0.8-4.2,1.6-6C60.5,135.4,61.8,134.1,63.1,132.3z"/>
	<path class="st1" d="M101.4,45.4c0,2,0,4.1,0,6.1c-2.1,1.3-4.1,2.8-6.6,3.6c-1.5,0.4-1.9,0.1-1.7-1.4C93.7,49,96.5,46.2,101.4,45.4
		z"/>
	<path class="st12" d="M149.1,108.5c5.2,4,5.4,9.2,5,15.1C149.8,119.4,148.6,114.5,149.1,108.5z"/>
	<path class="st12" d="M60.1,123.1c-0.4-5.5-0.2-10.6,4.6-14.3C66.2,113.1,63.7,121.1,60.1,123.1z"/>
	<path class="st12" d="M67.3,154.1c-0.2-0.1-0.2-0.2-0.1-0.4c0.1,0.1,0.1,0.2,0.2,0.2C67.4,154,67.3,154.1,67.3,154.1z"/>
	<path class="st12" d="M142.1,178.8c0-0.1,0-0.2,0.1-0.3C142.4,178.7,142.1,178.7,142.1,178.8C142,178.8,142.1,178.8,142.1,178.8z"
		/>
	<path class="st12" d="M65.9,121.5c0-0.1,0-0.1,0.1-0.2c0,0,0.1,0,0.1,0C66,121.4,65.9,121.5,65.9,121.5
		C65.9,121.5,65.9,121.5,65.9,121.5z"/>
	<path class="st3" d="M156.3,205.2c-0.1-0.9,0.2-1.6,1-1.6c1.5,0,1.3,1.5,1.6,2.5c0.2,0.6-0.1,1.2-0.9,1.2
		C156.7,207.3,156.5,206.3,156.3,205.2z"/>
	<path class="st3" d="M131.7,212.8c0.1,1-0.1,1.8-1,1.7c-1.2-0.1-1.4-1.2-1.4-2.1c0-0.8,0-1.7,1.1-1.6
		C131.9,211,131.5,212.2,131.7,212.8z"/>
	<path class="st3" d="M83.2,211.4c0.4,0.4,1.4,0.3,1.2,1.2c0,0.2-0.4,0.4-0.6,0.4c-0.8,0-1-0.6-1-1.3
		C83,211.6,83.1,211.5,83.2,211.4z"/>
	<path class="st3" d="M118.1,213.8c-0.2,0.9-0.2,2-1.3,2c-1.2,0-1.3-1.1-1.3-2c-0.1-0.9,0.4-1.7,1.4-1.7
		C118,212,117.8,213.2,118.1,213.8z"/>
	<path class="st6" d="M137.8,141.9c-2.6,0.3-4.7-0.4-6.9-0.8c-4.6-1-9.2-1.8-13.9-2c-3.4-0.1-6.8,0.5-10,1.9
		c-1.1,0.5-1.6,0.6-1.6-0.9c0.1-5,0-9.9,0-14.9c0-0.9,0.2-1.4,1.1-1.7c6.9-2.7,13.7-2.5,20.2,1.3c0.4,0.3,0.9,0.5,1.2,1
		C131.2,131,134.4,136.3,137.8,141.9z"/>
	<path class="st13" d="M71.3,141.9c3.2-5,6.3-9.7,9.2-14.5c1-1.6,2.2-2.7,4-3.3c6-2.1,12.1-2.9,18.3-0.7c0.8,0.3,1.4,0.5,1.4,1.7
		c-0.1,5.4,0,10.8,0,16.4c-1.9-0.6-3.6-1.4-5.5-1.8c-6.1-1.3-12-0.1-18,1C77.7,141.2,74.8,142.1,71.3,141.9z"/>
	<path class="st6" d="M70.3,147.5c0.8-1.4,1.5-2.5,2.1-3.6c0.3-0.6,0.8-0.8,1.4-0.8c5.7-0.9,11.4-1.9,17.1-2.7
		c3.8-0.6,7.4,0.3,11,1.5c1.6,0.6,2.6,1.4,2.2,3.3c-0.1,0.6,0,1.2,0,1.9c-2.3-0.7-4.4-1.6-6.6-2c-6.3-1.1-12.4,0.3-18.6,1.4
		C76.2,146.9,73.5,147.8,70.3,147.5z"/>
	<path class="st5" d="M138.6,147.5c-2.8,0.4-5.5-0.5-8.1-1c-4-0.7-8-1.4-12-1.7c-4.4-0.3-8.7,0.4-12.9,2.5c0-1.4,0-2.4,0-3.5
		c0-0.9,0.7-1.1,1.3-1.4c4.6-2.2,9.4-2.5,14.3-1.6c4.6,0.8,9.2,1.6,13.9,2.3C136.7,143.3,137.5,144.2,138.6,147.5z"/>
	<path class="st8" d="M102.6,122c1.3,0,2.7,0,4,0C105.2,123.1,103.9,122.8,102.6,122z"/>
	<path class="st3" d="M101.4,96.4c0,2.7,0,5.5,0,8.2c-1.8-0.8-2.2-2.2-1.8-3.9C99.9,99.2,100.1,97.5,101.4,96.4z"/>
	<path class="st7" d="M144.8,166.4c-0.1,0.1-0.2,0.1-0.4,0.2c0-0.2,0-0.3,0.1-0.5C144.6,166.3,144.7,166.4,144.8,166.4z"/>
	<path class="st7" d="M69.4,165.9c0.2,0.2,0.4,0.5,0.2,0.6c-0.3,0.3-0.4-0.1-0.5-0.3C69.2,166.1,69.3,166,69.4,165.9z"/>
</g>
</svg>
